<svg xmlns="http://www.w3.org/2000/svg" width="132.897" height="105.475" viewBox="0 0 132.897 105.475">
  <g id="Group_1059849" data-name="Group 1059849" transform="translate(-500.551 -552.937) rotate(21)">
    <g id="Group_1059840" data-name="Group 1059840" transform="translate(693.768 327.639)">
      <g id="Group_1059839" data-name="Group 1059839" transform="translate(0)">
        <path id="Path_1456385" data-name="Path 1456385" d="M697.168,406.334c13.08,2.656,28.037-1.713,38.958-8.954,10.454-6.931,21.7-19.7,18.039-33.289-1.335-4.948-5.613-9.068-10.918-6.655-4.926,2.241-6.354,7.96-3.936,12.607,6.529,12.549,25.32,6.6,34.259.462a43.842,43.842,0,0,0,13.65-15.124c3.041-5.589,5.609-12.744,4.667-19.176a.964.964,0,0,0-1.845,0c-.827,4.831-1.233,9.479-3.11,14.079a41.147,41.147,0,0,1-8.424,12.863c-7.067,7.359-18.691,13.722-29.22,11.5-5.58-1.18-12.5-8.191-7.209-13.716,2.147-2.24,5.588-2.832,7.861-.448,2.076,2.178,2.694,5.657,2.722,8.547.112,11.755-9.653,21.766-18.925,27.659a56.512,56.512,0,0,1-17.071,7.226c-6.463,1.555-12.763,1.532-19.346,1.285a.582.582,0,0,0-.154,1.139Z" transform="translate(-696.754 -335.52)" fill="#30243d"/>
      </g>
    </g>
    <g id="Group_1059842" data-name="Group 1059842" transform="translate(690.197 327.334)">
      <g id="Group_1059841" data-name="Group 1059841" transform="translate(0 0)">
        <path id="Path_1456386" data-name="Path 1456386" d="M690.584,405.493c13.437,6.271,29.389,3.5,41.146-5.113A59.066,59.066,0,0,0,746,385.139c3.934-5.964,7.9-13.167,8.333-20.439.3-5.073-2.35-13.3-8.933-12.2-5.792.965-10.923,7.814-10.878,13.524.051,6.394,5.969,10.749,11.835,11.533,7,.936,14.406-1.98,20.394-5.4a51.548,51.548,0,0,0,25.133-35.779c.235-1.421-1.93-2.04-2.183-.6a49.721,49.721,0,0,1-15.431,28.055,47.739,47.739,0,0,1-14.084,8.987c-5.927,2.425-13.423,4.345-19.187.521-6.361-4.22-4.853-11.911.347-16.39,3.035-2.615,6.8-3.592,9.324.3,2.047,3.161,1.87,7.38,1.019,10.9-2.729,11.269-10.833,22.479-19.848,29.589-11.3,8.915-27.029,12.512-40.5,6.466-.864-.388-1.626.879-.753,1.287Z" transform="translate(-690.197 -334.961)" fill="#30243d"/>
      </g>
    </g>
    <g id="Group_1059844" data-name="Group 1059844" transform="translate(778.313 323.172)">
      <g id="Group_1059843" data-name="Group 1059843" transform="translate(0 0)">
        <path id="Path_1456387" data-name="Path 1456387" d="M853.456,342.307c2.347-1.883,4.438-4.137,6.6-6.223l3.076-2.961c.474-.456,2.672-3.138,3.315-2.985.332.079,1,3.615,1.127,4.072l1.127,4.072c.733,2.648,1.106,6.015,2.7,8.284a1,1,0,0,0,1.851-.5c.125-1.877-.622-3.645-1.134-5.438l-1.74-6.093c-.537-1.881-.878-6.5-3.252-7.149-2.266-.618-4.606,3.22-5.935,4.557-2.983,3.005-6.255,5.894-8.953,9.156a.856.856,0,0,0,1.21,1.21Z" transform="translate(-852.013 -327.317)" fill="#30243d"/>
      </g>
    </g>
    <g id="Group_1059846" data-name="Group 1059846" transform="translate(779.337 319.082)">
      <g id="Group_1059845" data-name="Group 1059845" transform="translate(0 0)">
        <path id="Path_1456388" data-name="Path 1456388" d="M855.025,339.278c2.083-2.472,3.538-5.566,5.326-8.266a78.089,78.089,0,0,1,6.764-9.027l-2.162-.571c1.008,3.359,1.878,6.759,2.559,10.2.662,3.346.571,7.158,1.733,10.342.338.926,1.967,1.2,2.164,0,.524-3.189-.466-6.942-1.07-10.086a93.033,93.033,0,0,0-2.891-11.143,1.312,1.312,0,0,0-2.364-.309c-2.118,3.032-4.32,5.992-6.3,9.121-1.78,2.814-3.933,5.883-4.867,9.1-.176.606.67,1.163,1.107.644Z" transform="translate(-853.894 -319.806)" fill="#30243d"/>
      </g>
    </g>
    <g id="Group_1059848" data-name="Group 1059848" transform="translate(778.439 318.216)">
      <g id="Group_1059847" data-name="Group 1059847">
        <path id="Path_1456389" data-name="Path 1456389" d="M853.918,341.323c4.468-7.065,8.9-14.154,13.449-21.169L865,319.845c1.474,3.646,2.917,7.289,4.125,11.034,1.112,3.445,1.646,7.331,3.25,10.568a1.131,1.131,0,0,0,2.092-.566c-.01-3.739-1.668-7.711-2.848-11.22a105.747,105.747,0,0,0-4.255-10.812,1.3,1.3,0,0,0-2.234,0c-4.185,7.23-8.489,14.391-12.756,21.573a.893.893,0,0,0,1.541.9Z" transform="translate(-852.244 -318.216)" fill="#30243d"/>
      </g>
    </g>
  </g>
</svg>
