<svg xmlns="http://www.w3.org/2000/svg" width="211.846" height="29.547" viewBox="0 0 211.846 29.547">
  <g id="Group_1059851" data-name="Group 1059851" transform="matrix(0.998, -0.07, 0.07, 0.998, -63.026, -147.939)">
    <path id="Path_1456378" data-name="Path 1456378" d="M66.458,183.867c1.675.017,3.349-.082,5.022-.134.681-.022,1.362-.058,2.042-.093l9-.447q5.381-.267,10.762-.569l15.372-.858c1.174-.065,2.35-.11,3.524-.165q4.479-.213,8.956-.421l8.958-.42c1.168-.055,2.338-.126,3.507-.164q7.145-.227,14.292-.45l8.787-.276c1.146-.036,2.3-.091,3.442-.107q6.907-.1,13.815-.208,6.816-.1,13.633-.2c1.2-.017,2.4-.009,3.6-.014q4.451-.015,8.9-.035,6.919-.026,13.839-.053c1.508-.007,3.018.01,4.526.015l9.476.033.784,0q-10.665.144-21.332.3l-8.907.132c-1.281.019-2.563.024-3.844.057q-6.444.168-12.887.35l-14.9.4c-.834.023-1.669.07-2.5.109l-7.932.365q-8.044.37-16.089.741c-.794.037-1.586.093-2.38.147q-3.929.271-7.858.543-7.038.486-14.076.972c-1.293.09-2.586.217-3.878.326l-9.014.759c-3.819.321-7.639.633-11.456.966q-7.972.694-15.941,1.392l-3.823.333c-2.284.2-4.562.488-6.841.74a.446.446,0,1,0,0,.892q1.249.056,2.5.108a1.623,1.623,0,0,0,1.471,2.332c6.515-.406,13.028-.848,19.549-1.159l16.983-.808,18.776-.895,5.911-.282c.569-.026,1.138-.063,1.707-.077q15.124-.4,30.247-.794l16.164-.424q2.922-.077,5.84-.126,15.469-.241,30.938-.484L228.383,186c3.772-.061,7.546-.087,11.317-.228l9.348-.354c1.555-.058,3.113-.1,4.666-.194q5.305-.334,10.61-.685l-.008.013a1.471,1.471,0,0,0,.528,2.014,1.408,1.408,0,0,0,1.134.148q1.157-.458,2.3-.94l-.048.021.17-.072.2-.083-.072.03,1.223-.516c.427-.178.854-.358,1.278-.544.463-.2.906-.447,1.352-.685a1.643,1.643,0,0,0,.589-2.246,1.582,1.582,0,0,0-.981-.755c-.4-.069-.789-.121-1.186-.172a2.113,2.113,0,0,0-.266-.016c-.269,0-.548.038-.8.056-.6.043-1.2.132-1.8.176l-1.469.106q-1.979.144-3.957.287c-.34.025-.682.045-1.022.068a1.25,1.25,0,0,0,.265-.484,1.329,1.329,0,0,0,.1-.455c.014-.112.03-.224.045-.336a1.279,1.279,0,0,0-.073-.418l.1-.046a1.664,1.664,0,0,0,.593-.595,1.653,1.653,0,0,0,0-1.672c-.085-.112-.172-.224-.258-.336a1.664,1.664,0,0,0-.731-.426,4.372,4.372,0,0,0-1.58-.241c-.441,0-.885.032-1.32.036l-1.9.019c-.9.009-1.794.022-2.692.027q-3.555.019-7.111.036c-2.23.013-4.459.01-6.689.009q-3.04,0-6.079,0c-8.079.035-16.157.048-24.236.131q-9.087.09-18.173.183-4.062.043-8.123.127l-18.21.385-5.193.11c-1,.022-2.008.074-3.012.112q-9,.341-18,.682l-5.493.21c-1.027.038-2.054.106-3.08.161q-8.937.481-17.877.96-4.616.248-9.225.545-7.9.5-15.792,1c-4.561.286-9.124.534-13.685.8l-2.169.126c-1.167.069-2.338.115-3.507.167-1.037.046-2.079.076-3.118.048a.693.693,0,0,0-.667-.466c-.67.054-1.34.126-2.009.2a.746.746,0,0,0-.7.531.732.732,0,0,0,.507.893c.291.069.58.142.872.209a6.6,6.6,0,0,0,.878.109C64.918,183.845,65.689,183.86,66.458,183.867Zm184.325-2.529,2.937,0a1.587,1.587,0,0,0,.4.574c-.379.026-.758.051-1.137.065l-2.141.08-9.348.351c-1.427.053-2.853.132-4.28.154q-3.343.051-6.687.106-7.64.12-15.281.242-14.832.24-29.665.469c-7.081.113-14.16.334-21.239.52q-16,.427-32,.849c-2.139.057-4.277.193-6.413.3q-9.081.436-18.163.871l-17.831.854-1.651.08q2.4-.194,4.807-.379l16.783-1.283,5.861-.447c1.007-.076,2.017-.125,3.026-.187l17.452-1.057c1.137-.07,2.275-.161,3.413-.206l4.917-.191,17.994-.7,3.959-.154c.347-.013.7-.014,1.043-.021l2.781-.056,18.031-.368c2.77-.057,5.538-.122,8.308-.145,8.937-.072,17.874-.165,26.811-.2C232.571,181.409,241.677,181.346,250.782,181.339Z" transform="translate(-10.345 -9.745)" fill="#fff"/>
    <circle id="Ellipse_49162" data-name="Ellipse 49162" cx="0.447" cy="0.447" r="0.447" transform="translate(77.852 181.466)" fill="#fff"/>
  </g>
</svg>
