<svg xmlns="http://www.w3.org/2000/svg" width="67.815" height="68.077" viewBox="0 0 67.815 68.077">
  <g id="Group_1059853" data-name="Group 1059853" transform="translate(35.344) rotate(49)">
    <g id="Group_390744" data-name="Group 390744" transform="translate(0 44.717)">
      <path id="Path_776272" data-name="Path 776272" d="M30.742,408.256a1.058,1.058,0,1,1-1.057-1.057A1.057,1.057,0,0,1,30.742,408.256Z" transform="translate(-28.627 -407.199)" fill="#fff"/>
      <path id="Path_776273" data-name="Path 776273" d="M36.632,408.256a1.058,1.058,0,1,1-1.057-1.057A1.057,1.057,0,0,1,36.632,408.256Z" transform="translate(-27.749 -407.199)" fill="#fff"/>
      <path id="Path_776274" data-name="Path 776274" d="M42.522,408.256a1.057,1.057,0,1,1-1.057-1.057A1.057,1.057,0,0,1,42.522,408.256Z" transform="translate(-26.871 -407.199)" fill="#fff"/>
      <path id="Path_776275" data-name="Path 776275" d="M48.412,408.256a1.057,1.057,0,1,1-1.057-1.057A1.057,1.057,0,0,1,48.412,408.256Z" transform="translate(-25.992 -407.199)" fill="#fff"/>
      <path id="Path_776276" data-name="Path 776276" d="M54.3,408.256a1.058,1.058,0,1,1-1.058-1.057A1.057,1.057,0,0,1,54.3,408.256Z" transform="translate(-25.114 -407.199)" fill="#fff"/>
      <path id="Path_776277" data-name="Path 776277" d="M60.193,408.256a1.058,1.058,0,1,1-1.057-1.057A1.057,1.057,0,0,1,60.193,408.256Z" transform="translate(-24.236 -407.199)" fill="#fff"/>
      <path id="Path_776278" data-name="Path 776278" d="M66.083,408.256a1.058,1.058,0,1,1-1.057-1.057A1.057,1.057,0,0,1,66.083,408.256Z" transform="translate(-23.358 -407.199)" fill="#fff"/>
      <path id="Path_776279" data-name="Path 776279" d="M71.973,408.256a1.057,1.057,0,1,1-1.057-1.057A1.057,1.057,0,0,1,71.973,408.256Z" transform="translate(-22.48 -407.199)" fill="#fff"/>
    </g>
    <g id="Group_390745" data-name="Group 390745" transform="translate(0 38.328)">
      <path id="Path_776280" data-name="Path 776280" d="M30.742,402.7a1.058,1.058,0,1,1-1.057-1.058A1.057,1.057,0,0,1,30.742,402.7Z" transform="translate(-28.627 -401.639)" fill="#fff"/>
      <path id="Path_776281" data-name="Path 776281" d="M36.632,402.7a1.058,1.058,0,1,1-1.057-1.058A1.057,1.057,0,0,1,36.632,402.7Z" transform="translate(-27.749 -401.639)" fill="#fff"/>
      <path id="Path_776282" data-name="Path 776282" d="M42.522,402.7a1.057,1.057,0,1,1-1.057-1.058A1.057,1.057,0,0,1,42.522,402.7Z" transform="translate(-26.871 -401.639)" fill="#fff"/>
      <path id="Path_776283" data-name="Path 776283" d="M48.412,402.7a1.057,1.057,0,1,1-1.057-1.058A1.057,1.057,0,0,1,48.412,402.7Z" transform="translate(-25.992 -401.639)" fill="#fff"/>
      <path id="Path_776284" data-name="Path 776284" d="M54.3,402.7a1.058,1.058,0,1,1-1.058-1.058A1.058,1.058,0,0,1,54.3,402.7Z" transform="translate(-25.114 -401.639)" fill="#fff"/>
      <path id="Path_776285" data-name="Path 776285" d="M60.193,402.7a1.058,1.058,0,1,1-1.057-1.058A1.057,1.057,0,0,1,60.193,402.7Z" transform="translate(-24.236 -401.639)" fill="#fff"/>
      <path id="Path_776286" data-name="Path 776286" d="M66.083,402.7a1.058,1.058,0,1,1-1.057-1.058A1.057,1.057,0,0,1,66.083,402.7Z" transform="translate(-23.358 -401.639)" fill="#fff"/>
      <path id="Path_776287" data-name="Path 776287" d="M71.973,402.7a1.057,1.057,0,1,1-1.057-1.058A1.057,1.057,0,0,1,71.973,402.7Z" transform="translate(-22.48 -401.639)" fill="#fff"/>
    </g>
    <g id="Group_390746" data-name="Group 390746" transform="translate(0 31.94)">
      <path id="Path_776288" data-name="Path 776288" d="M30.742,397.138a1.058,1.058,0,1,1-1.057-1.058A1.057,1.057,0,0,1,30.742,397.138Z" transform="translate(-28.627 -396.08)" fill="#fff"/>
      <path id="Path_776289" data-name="Path 776289" d="M36.632,397.138a1.058,1.058,0,1,1-1.057-1.058A1.057,1.057,0,0,1,36.632,397.138Z" transform="translate(-27.749 -396.08)" fill="#fff"/>
      <path id="Path_776290" data-name="Path 776290" d="M42.522,397.138a1.057,1.057,0,1,1-1.057-1.058A1.057,1.057,0,0,1,42.522,397.138Z" transform="translate(-26.871 -396.08)" fill="#fff"/>
      <path id="Path_776291" data-name="Path 776291" d="M48.412,397.138a1.057,1.057,0,1,1-1.057-1.058A1.057,1.057,0,0,1,48.412,397.138Z" transform="translate(-25.992 -396.08)" fill="#fff"/>
      <path id="Path_776292" data-name="Path 776292" d="M54.3,397.138a1.058,1.058,0,1,1-1.058-1.058A1.058,1.058,0,0,1,54.3,397.138Z" transform="translate(-25.114 -396.08)" fill="#fff"/>
      <path id="Path_776293" data-name="Path 776293" d="M60.193,397.138a1.058,1.058,0,1,1-1.057-1.058A1.057,1.057,0,0,1,60.193,397.138Z" transform="translate(-24.236 -396.08)" fill="#fff"/>
      <path id="Path_776294" data-name="Path 776294" d="M66.083,397.138a1.058,1.058,0,1,1-1.057-1.058A1.057,1.057,0,0,1,66.083,397.138Z" transform="translate(-23.358 -396.08)" fill="#fff"/>
      <path id="Path_776295" data-name="Path 776295" d="M71.973,397.138a1.057,1.057,0,1,1-1.057-1.058A1.057,1.057,0,0,1,71.973,397.138Z" transform="translate(-22.48 -396.08)" fill="#fff"/>
    </g>
    <g id="Group_390747" data-name="Group 390747" transform="translate(0 25.552)">
      <path id="Path_776296" data-name="Path 776296" d="M30.742,391.578a1.058,1.058,0,1,1-1.057-1.057A1.058,1.058,0,0,1,30.742,391.578Z" transform="translate(-28.627 -390.521)" fill="#fff"/>
      <path id="Path_776297" data-name="Path 776297" d="M36.632,391.578a1.058,1.058,0,1,1-1.057-1.057A1.058,1.058,0,0,1,36.632,391.578Z" transform="translate(-27.749 -390.521)" fill="#fff"/>
      <path id="Path_776298" data-name="Path 776298" d="M42.522,391.578a1.057,1.057,0,1,1-1.057-1.057A1.058,1.058,0,0,1,42.522,391.578Z" transform="translate(-26.871 -390.521)" fill="#fff"/>
      <path id="Path_776299" data-name="Path 776299" d="M48.412,391.578a1.057,1.057,0,1,1-1.057-1.057A1.058,1.058,0,0,1,48.412,391.578Z" transform="translate(-25.992 -390.521)" fill="#fff"/>
      <path id="Path_776300" data-name="Path 776300" d="M54.3,391.578a1.058,1.058,0,1,1-1.058-1.057A1.058,1.058,0,0,1,54.3,391.578Z" transform="translate(-25.114 -390.521)" fill="#fff"/>
      <path id="Path_776301" data-name="Path 776301" d="M60.193,391.578a1.058,1.058,0,1,1-1.057-1.057A1.058,1.058,0,0,1,60.193,391.578Z" transform="translate(-24.236 -390.521)" fill="#fff"/>
      <path id="Path_776302" data-name="Path 776302" d="M66.083,391.578a1.058,1.058,0,1,1-1.057-1.057A1.058,1.058,0,0,1,66.083,391.578Z" transform="translate(-23.358 -390.521)" fill="#fff"/>
      <path id="Path_776303" data-name="Path 776303" d="M71.973,391.578a1.057,1.057,0,1,1-1.057-1.057A1.058,1.058,0,0,1,71.973,391.578Z" transform="translate(-22.48 -390.521)" fill="#fff"/>
    </g>
    <g id="Group_390748" data-name="Group 390748" transform="translate(0 19.165)">
      <path id="Path_776304" data-name="Path 776304" d="M30.742,386.019a1.058,1.058,0,1,1-1.057-1.057A1.057,1.057,0,0,1,30.742,386.019Z" transform="translate(-28.627 -384.962)" fill="#fff"/>
      <path id="Path_776305" data-name="Path 776305" d="M36.632,386.019a1.058,1.058,0,1,1-1.057-1.057A1.057,1.057,0,0,1,36.632,386.019Z" transform="translate(-27.749 -384.962)" fill="#fff"/>
      <path id="Path_776306" data-name="Path 776306" d="M42.522,386.019a1.057,1.057,0,1,1-1.057-1.057A1.057,1.057,0,0,1,42.522,386.019Z" transform="translate(-26.871 -384.962)" fill="#fff"/>
      <path id="Path_776307" data-name="Path 776307" d="M48.412,386.019a1.057,1.057,0,1,1-1.057-1.057A1.057,1.057,0,0,1,48.412,386.019Z" transform="translate(-25.992 -384.962)" fill="#fff"/>
      <path id="Path_776308" data-name="Path 776308" d="M54.3,386.019a1.058,1.058,0,1,1-1.058-1.057A1.058,1.058,0,0,1,54.3,386.019Z" transform="translate(-25.114 -384.962)" fill="#fff"/>
      <path id="Path_776309" data-name="Path 776309" d="M60.193,386.019a1.058,1.058,0,1,1-1.057-1.057A1.057,1.057,0,0,1,60.193,386.019Z" transform="translate(-24.236 -384.962)" fill="#fff"/>
      <path id="Path_776310" data-name="Path 776310" d="M66.083,386.019a1.058,1.058,0,1,1-1.057-1.057A1.057,1.057,0,0,1,66.083,386.019Z" transform="translate(-23.358 -384.962)" fill="#fff"/>
      <path id="Path_776311" data-name="Path 776311" d="M71.973,386.019a1.057,1.057,0,1,1-1.057-1.057A1.057,1.057,0,0,1,71.973,386.019Z" transform="translate(-22.48 -384.962)" fill="#fff"/>
    </g>
    <g id="Group_390749" data-name="Group 390749" transform="translate(0 12.777)">
      <path id="Path_776312" data-name="Path 776312" d="M30.742,380.46a1.058,1.058,0,1,1-1.057-1.057A1.057,1.057,0,0,1,30.742,380.46Z" transform="translate(-28.627 -379.403)" fill="#fff"/>
      <path id="Path_776313" data-name="Path 776313" d="M36.632,380.46a1.058,1.058,0,1,1-1.057-1.057A1.057,1.057,0,0,1,36.632,380.46Z" transform="translate(-27.749 -379.403)" fill="#fff"/>
      <path id="Path_776314" data-name="Path 776314" d="M42.522,380.46a1.057,1.057,0,1,1-1.057-1.057A1.057,1.057,0,0,1,42.522,380.46Z" transform="translate(-26.871 -379.403)" fill="#fff"/>
      <path id="Path_776315" data-name="Path 776315" d="M48.412,380.46a1.057,1.057,0,1,1-1.057-1.057A1.057,1.057,0,0,1,48.412,380.46Z" transform="translate(-25.992 -379.403)" fill="#fff"/>
      <path id="Path_776316" data-name="Path 776316" d="M54.3,380.46a1.058,1.058,0,1,1-1.058-1.057A1.058,1.058,0,0,1,54.3,380.46Z" transform="translate(-25.114 -379.403)" fill="#fff"/>
      <path id="Path_776317" data-name="Path 776317" d="M60.193,380.46a1.058,1.058,0,1,1-1.057-1.057A1.057,1.057,0,0,1,60.193,380.46Z" transform="translate(-24.236 -379.403)" fill="#fff"/>
      <path id="Path_776318" data-name="Path 776318" d="M66.083,380.46a1.058,1.058,0,1,1-1.057-1.057A1.057,1.057,0,0,1,66.083,380.46Z" transform="translate(-23.358 -379.403)" fill="#fff"/>
      <path id="Path_776319" data-name="Path 776319" d="M71.973,380.46a1.057,1.057,0,1,1-1.057-1.057A1.057,1.057,0,0,1,71.973,380.46Z" transform="translate(-22.48 -379.403)" fill="#fff"/>
    </g>
    <g id="Group_390750" data-name="Group 390750" transform="translate(0 6.388)">
      <path id="Path_776320" data-name="Path 776320" d="M30.742,374.9a1.058,1.058,0,1,1-1.057-1.058A1.057,1.057,0,0,1,30.742,374.9Z" transform="translate(-28.627 -373.843)" fill="#fff"/>
      <path id="Path_776321" data-name="Path 776321" d="M36.632,374.9a1.058,1.058,0,1,1-1.057-1.058A1.057,1.057,0,0,1,36.632,374.9Z" transform="translate(-27.749 -373.843)" fill="#fff"/>
      <path id="Path_776322" data-name="Path 776322" d="M42.522,374.9a1.057,1.057,0,1,1-1.057-1.058A1.057,1.057,0,0,1,42.522,374.9Z" transform="translate(-26.871 -373.843)" fill="#fff"/>
      <path id="Path_776323" data-name="Path 776323" d="M48.412,374.9a1.057,1.057,0,1,1-1.057-1.058A1.057,1.057,0,0,1,48.412,374.9Z" transform="translate(-25.992 -373.843)" fill="#fff"/>
      <path id="Path_776324" data-name="Path 776324" d="M54.3,374.9a1.058,1.058,0,1,1-1.058-1.058A1.057,1.057,0,0,1,54.3,374.9Z" transform="translate(-25.114 -373.843)" fill="#fff"/>
      <path id="Path_776325" data-name="Path 776325" d="M60.193,374.9a1.058,1.058,0,1,1-1.057-1.058A1.057,1.057,0,0,1,60.193,374.9Z" transform="translate(-24.236 -373.843)" fill="#fff"/>
      <path id="Path_776326" data-name="Path 776326" d="M66.083,374.9a1.058,1.058,0,1,1-1.057-1.058A1.057,1.057,0,0,1,66.083,374.9Z" transform="translate(-23.358 -373.843)" fill="#fff"/>
      <path id="Path_776327" data-name="Path 776327" d="M71.973,374.9a1.057,1.057,0,1,1-1.057-1.058A1.057,1.057,0,0,1,71.973,374.9Z" transform="translate(-22.48 -373.843)" fill="#fff"/>
    </g>
    <g id="Group_390751" data-name="Group 390751">
      <path id="Path_776328" data-name="Path 776328" d="M30.742,369.341a1.058,1.058,0,1,1-1.057-1.057A1.058,1.058,0,0,1,30.742,369.341Z" transform="translate(-28.627 -368.284)" fill="#fff"/>
      <path id="Path_776329" data-name="Path 776329" d="M36.632,369.341a1.058,1.058,0,1,1-1.057-1.057A1.058,1.058,0,0,1,36.632,369.341Z" transform="translate(-27.749 -368.284)" fill="#fff"/>
      <path id="Path_776330" data-name="Path 776330" d="M42.522,369.341a1.057,1.057,0,1,1-1.057-1.057A1.058,1.058,0,0,1,42.522,369.341Z" transform="translate(-26.871 -368.284)" fill="#fff"/>
      <path id="Path_776331" data-name="Path 776331" d="M48.412,369.341a1.057,1.057,0,1,1-1.057-1.057A1.058,1.058,0,0,1,48.412,369.341Z" transform="translate(-25.992 -368.284)" fill="#fff"/>
      <path id="Path_776332" data-name="Path 776332" d="M54.3,369.341a1.058,1.058,0,1,1-1.058-1.057A1.058,1.058,0,0,1,54.3,369.341Z" transform="translate(-25.114 -368.284)" fill="#fff"/>
      <path id="Path_776333" data-name="Path 776333" d="M60.193,369.341a1.058,1.058,0,1,1-1.057-1.057A1.058,1.058,0,0,1,60.193,369.341Z" transform="translate(-24.236 -368.284)" fill="#fff"/>
      <path id="Path_776334" data-name="Path 776334" d="M66.083,369.341a1.058,1.058,0,1,1-1.057-1.057A1.058,1.058,0,0,1,66.083,369.341Z" transform="translate(-23.358 -368.284)" fill="#fff"/>
      <path id="Path_776335" data-name="Path 776335" d="M71.973,369.341a1.057,1.057,0,1,1-1.057-1.057A1.058,1.058,0,0,1,71.973,369.341Z" transform="translate(-22.48 -368.284)" fill="#fff"/>
    </g>
  </g>
</svg>
