<svg xmlns="http://www.w3.org/2000/svg" width="120.322" height="120.788" viewBox="0 0 120.322 120.788">
  <g id="Group_1059854" data-name="Group 1059854" transform="translate(62.71) rotate(49)" opacity="0.37">
    <g id="Group_390744" data-name="Group 390744" transform="translate(0 79.34)">
      <path id="Path_776272" data-name="Path 776272" d="M32.38,409.075A1.877,1.877,0,1,1,30.5,407.2,1.876,1.876,0,0,1,32.38,409.075Z" transform="translate(-28.627 -407.199)" fill="#fff"/>
      <path id="Path_776273" data-name="Path 776273" d="M38.27,409.075a1.877,1.877,0,1,1-1.876-1.876A1.876,1.876,0,0,1,38.27,409.075Z" transform="translate(-22.508 -407.199)" fill="#fff"/>
      <path id="Path_776274" data-name="Path 776274" d="M44.159,409.075a1.876,1.876,0,1,1-1.876-1.876A1.876,1.876,0,0,1,44.159,409.075Z" transform="translate(-16.389 -407.199)" fill="#fff"/>
      <path id="Path_776275" data-name="Path 776275" d="M50.049,409.075a1.876,1.876,0,1,1-1.876-1.876A1.876,1.876,0,0,1,50.049,409.075Z" transform="translate(-10.27 -407.199)" fill="#fff"/>
      <path id="Path_776276" data-name="Path 776276" d="M55.941,409.075a1.877,1.877,0,1,1-1.878-1.876A1.876,1.876,0,0,1,55.941,409.075Z" transform="translate(-4.152 -407.199)" fill="#fff"/>
      <path id="Path_776277" data-name="Path 776277" d="M61.831,409.075a1.877,1.877,0,1,1-1.876-1.876A1.876,1.876,0,0,1,61.831,409.075Z" transform="translate(1.967 -407.199)" fill="#fff"/>
      <path id="Path_776278" data-name="Path 776278" d="M67.721,409.075a1.877,1.877,0,1,1-1.876-1.876A1.876,1.876,0,0,1,67.721,409.075Z" transform="translate(8.086 -407.199)" fill="#fff"/>
      <path id="Path_776279" data-name="Path 776279" d="M73.61,409.075a1.876,1.876,0,1,1-1.876-1.876A1.876,1.876,0,0,1,73.61,409.075Z" transform="translate(14.205 -407.199)" fill="#fff"/>
    </g>
    <g id="Group_390745" data-name="Group 390745" transform="translate(0 68.005)">
      <path id="Path_776280" data-name="Path 776280" d="M32.38,403.517a1.877,1.877,0,1,1-1.876-1.878A1.876,1.876,0,0,1,32.38,403.517Z" transform="translate(-28.627 -401.639)" fill="#fff"/>
      <path id="Path_776281" data-name="Path 776281" d="M38.27,403.517a1.877,1.877,0,1,1-1.876-1.878A1.876,1.876,0,0,1,38.27,403.517Z" transform="translate(-22.508 -401.639)" fill="#fff"/>
      <path id="Path_776282" data-name="Path 776282" d="M44.159,403.517a1.876,1.876,0,1,1-1.876-1.878A1.876,1.876,0,0,1,44.159,403.517Z" transform="translate(-16.389 -401.639)" fill="#fff"/>
      <path id="Path_776283" data-name="Path 776283" d="M50.049,403.517a1.876,1.876,0,1,1-1.876-1.878A1.876,1.876,0,0,1,50.049,403.517Z" transform="translate(-10.27 -401.639)" fill="#fff"/>
      <path id="Path_776284" data-name="Path 776284" d="M55.941,403.517a1.877,1.877,0,1,1-1.878-1.878A1.876,1.876,0,0,1,55.941,403.517Z" transform="translate(-4.152 -401.639)" fill="#fff"/>
      <path id="Path_776285" data-name="Path 776285" d="M61.831,403.517a1.877,1.877,0,1,1-1.876-1.878A1.876,1.876,0,0,1,61.831,403.517Z" transform="translate(1.967 -401.639)" fill="#fff"/>
      <path id="Path_776286" data-name="Path 776286" d="M67.721,403.517a1.877,1.877,0,1,1-1.876-1.878A1.876,1.876,0,0,1,67.721,403.517Z" transform="translate(8.086 -401.639)" fill="#fff"/>
      <path id="Path_776287" data-name="Path 776287" d="M73.61,403.517a1.876,1.876,0,1,1-1.876-1.878A1.876,1.876,0,0,1,73.61,403.517Z" transform="translate(14.205 -401.639)" fill="#fff"/>
    </g>
    <g id="Group_390746" data-name="Group 390746" transform="translate(0 56.671)">
      <path id="Path_776288" data-name="Path 776288" d="M32.38,397.958A1.877,1.877,0,1,1,30.5,396.08,1.876,1.876,0,0,1,32.38,397.958Z" transform="translate(-28.627 -396.08)" fill="#fff"/>
      <path id="Path_776289" data-name="Path 776289" d="M38.27,397.958a1.877,1.877,0,1,1-1.876-1.878A1.876,1.876,0,0,1,38.27,397.958Z" transform="translate(-22.508 -396.08)" fill="#fff"/>
      <path id="Path_776290" data-name="Path 776290" d="M44.159,397.958a1.876,1.876,0,1,1-1.876-1.878A1.876,1.876,0,0,1,44.159,397.958Z" transform="translate(-16.389 -396.08)" fill="#fff"/>
      <path id="Path_776291" data-name="Path 776291" d="M50.049,397.958a1.876,1.876,0,1,1-1.876-1.878A1.876,1.876,0,0,1,50.049,397.958Z" transform="translate(-10.27 -396.08)" fill="#fff"/>
      <path id="Path_776292" data-name="Path 776292" d="M55.941,397.958a1.877,1.877,0,1,1-1.878-1.878A1.876,1.876,0,0,1,55.941,397.958Z" transform="translate(-4.152 -396.08)" fill="#fff"/>
      <path id="Path_776293" data-name="Path 776293" d="M61.831,397.958a1.877,1.877,0,1,1-1.876-1.878A1.876,1.876,0,0,1,61.831,397.958Z" transform="translate(1.967 -396.08)" fill="#fff"/>
      <path id="Path_776294" data-name="Path 776294" d="M67.721,397.958a1.877,1.877,0,1,1-1.876-1.878A1.876,1.876,0,0,1,67.721,397.958Z" transform="translate(8.086 -396.08)" fill="#fff"/>
      <path id="Path_776295" data-name="Path 776295" d="M73.61,397.958a1.876,1.876,0,1,1-1.876-1.878A1.876,1.876,0,0,1,73.61,397.958Z" transform="translate(14.205 -396.08)" fill="#fff"/>
    </g>
    <g id="Group_390747" data-name="Group 390747" transform="translate(0 45.337)">
      <path id="Path_776296" data-name="Path 776296" d="M32.38,392.4a1.877,1.877,0,1,1-1.876-1.876A1.876,1.876,0,0,1,32.38,392.4Z" transform="translate(-28.627 -390.521)" fill="#fff"/>
      <path id="Path_776297" data-name="Path 776297" d="M38.27,392.4a1.877,1.877,0,1,1-1.876-1.876A1.876,1.876,0,0,1,38.27,392.4Z" transform="translate(-22.508 -390.521)" fill="#fff"/>
      <path id="Path_776298" data-name="Path 776298" d="M44.159,392.4a1.876,1.876,0,1,1-1.876-1.876A1.876,1.876,0,0,1,44.159,392.4Z" transform="translate(-16.389 -390.521)" fill="#fff"/>
      <path id="Path_776299" data-name="Path 776299" d="M50.049,392.4a1.876,1.876,0,1,1-1.876-1.876A1.876,1.876,0,0,1,50.049,392.4Z" transform="translate(-10.27 -390.521)" fill="#fff"/>
      <path id="Path_776300" data-name="Path 776300" d="M55.941,392.4a1.877,1.877,0,1,1-1.878-1.876A1.877,1.877,0,0,1,55.941,392.4Z" transform="translate(-4.152 -390.521)" fill="#fff"/>
      <path id="Path_776301" data-name="Path 776301" d="M61.831,392.4a1.877,1.877,0,1,1-1.876-1.876A1.876,1.876,0,0,1,61.831,392.4Z" transform="translate(1.967 -390.521)" fill="#fff"/>
      <path id="Path_776302" data-name="Path 776302" d="M67.721,392.4a1.877,1.877,0,1,1-1.876-1.876A1.876,1.876,0,0,1,67.721,392.4Z" transform="translate(8.086 -390.521)" fill="#fff"/>
      <path id="Path_776303" data-name="Path 776303" d="M73.61,392.4a1.876,1.876,0,1,1-1.876-1.876A1.876,1.876,0,0,1,73.61,392.4Z" transform="translate(14.205 -390.521)" fill="#fff"/>
    </g>
    <g id="Group_390748" data-name="Group 390748" transform="translate(0 34.003)">
      <path id="Path_776304" data-name="Path 776304" d="M32.38,386.838a1.877,1.877,0,1,1-1.876-1.876A1.876,1.876,0,0,1,32.38,386.838Z" transform="translate(-28.627 -384.962)" fill="#fff"/>
      <path id="Path_776305" data-name="Path 776305" d="M38.27,386.838a1.877,1.877,0,1,1-1.876-1.876A1.876,1.876,0,0,1,38.27,386.838Z" transform="translate(-22.508 -384.962)" fill="#fff"/>
      <path id="Path_776306" data-name="Path 776306" d="M44.159,386.838a1.876,1.876,0,1,1-1.876-1.876A1.876,1.876,0,0,1,44.159,386.838Z" transform="translate(-16.389 -384.962)" fill="#fff"/>
      <path id="Path_776307" data-name="Path 776307" d="M50.049,386.838a1.876,1.876,0,1,1-1.876-1.876A1.876,1.876,0,0,1,50.049,386.838Z" transform="translate(-10.27 -384.962)" fill="#fff"/>
      <path id="Path_776308" data-name="Path 776308" d="M55.941,386.838a1.877,1.877,0,1,1-1.878-1.876A1.876,1.876,0,0,1,55.941,386.838Z" transform="translate(-4.152 -384.962)" fill="#fff"/>
      <path id="Path_776309" data-name="Path 776309" d="M61.831,386.838a1.877,1.877,0,1,1-1.876-1.876A1.876,1.876,0,0,1,61.831,386.838Z" transform="translate(1.967 -384.962)" fill="#fff"/>
      <path id="Path_776310" data-name="Path 776310" d="M67.721,386.838a1.877,1.877,0,1,1-1.876-1.876A1.876,1.876,0,0,1,67.721,386.838Z" transform="translate(8.086 -384.962)" fill="#fff"/>
      <path id="Path_776311" data-name="Path 776311" d="M73.61,386.838a1.876,1.876,0,1,1-1.876-1.876A1.876,1.876,0,0,1,73.61,386.838Z" transform="translate(14.205 -384.962)" fill="#fff"/>
    </g>
    <g id="Group_390749" data-name="Group 390749" transform="translate(0 22.67)">
      <path id="Path_776312" data-name="Path 776312" d="M32.38,381.279A1.877,1.877,0,1,1,30.5,379.4,1.876,1.876,0,0,1,32.38,381.279Z" transform="translate(-28.627 -379.403)" fill="#fff"/>
      <path id="Path_776313" data-name="Path 776313" d="M38.27,381.279a1.877,1.877,0,1,1-1.876-1.876A1.876,1.876,0,0,1,38.27,381.279Z" transform="translate(-22.508 -379.403)" fill="#fff"/>
      <path id="Path_776314" data-name="Path 776314" d="M44.159,381.279a1.876,1.876,0,1,1-1.876-1.876A1.876,1.876,0,0,1,44.159,381.279Z" transform="translate(-16.389 -379.403)" fill="#fff"/>
      <path id="Path_776315" data-name="Path 776315" d="M50.049,381.279a1.876,1.876,0,1,1-1.876-1.876A1.876,1.876,0,0,1,50.049,381.279Z" transform="translate(-10.27 -379.403)" fill="#fff"/>
      <path id="Path_776316" data-name="Path 776316" d="M55.941,381.279a1.877,1.877,0,1,1-1.878-1.876A1.876,1.876,0,0,1,55.941,381.279Z" transform="translate(-4.152 -379.403)" fill="#fff"/>
      <path id="Path_776317" data-name="Path 776317" d="M61.831,381.279a1.877,1.877,0,1,1-1.876-1.876A1.876,1.876,0,0,1,61.831,381.279Z" transform="translate(1.967 -379.403)" fill="#fff"/>
      <path id="Path_776318" data-name="Path 776318" d="M67.721,381.279a1.877,1.877,0,1,1-1.876-1.876A1.876,1.876,0,0,1,67.721,381.279Z" transform="translate(8.086 -379.403)" fill="#fff"/>
      <path id="Path_776319" data-name="Path 776319" d="M73.61,381.279a1.876,1.876,0,1,1-1.876-1.876A1.876,1.876,0,0,1,73.61,381.279Z" transform="translate(14.205 -379.403)" fill="#fff"/>
    </g>
    <g id="Group_390750" data-name="Group 390750" transform="translate(0 11.334)">
      <path id="Path_776320" data-name="Path 776320" d="M32.38,375.721a1.877,1.877,0,1,1-1.876-1.878A1.876,1.876,0,0,1,32.38,375.721Z" transform="translate(-28.627 -373.843)" fill="#fff"/>
      <path id="Path_776321" data-name="Path 776321" d="M38.27,375.721a1.877,1.877,0,1,1-1.876-1.878A1.876,1.876,0,0,1,38.27,375.721Z" transform="translate(-22.508 -373.843)" fill="#fff"/>
      <path id="Path_776322" data-name="Path 776322" d="M44.159,375.721a1.876,1.876,0,1,1-1.876-1.878A1.876,1.876,0,0,1,44.159,375.721Z" transform="translate(-16.389 -373.843)" fill="#fff"/>
      <path id="Path_776323" data-name="Path 776323" d="M50.049,375.721a1.876,1.876,0,1,1-1.876-1.878A1.876,1.876,0,0,1,50.049,375.721Z" transform="translate(-10.27 -373.843)" fill="#fff"/>
      <path id="Path_776324" data-name="Path 776324" d="M55.941,375.721a1.877,1.877,0,1,1-1.878-1.878A1.876,1.876,0,0,1,55.941,375.721Z" transform="translate(-4.152 -373.843)" fill="#fff"/>
      <path id="Path_776325" data-name="Path 776325" d="M61.831,375.721a1.877,1.877,0,1,1-1.876-1.878A1.876,1.876,0,0,1,61.831,375.721Z" transform="translate(1.967 -373.843)" fill="#fff"/>
      <path id="Path_776326" data-name="Path 776326" d="M67.721,375.721a1.877,1.877,0,1,1-1.876-1.878A1.876,1.876,0,0,1,67.721,375.721Z" transform="translate(8.086 -373.843)" fill="#fff"/>
      <path id="Path_776327" data-name="Path 776327" d="M73.61,375.721a1.876,1.876,0,1,1-1.876-1.878A1.876,1.876,0,0,1,73.61,375.721Z" transform="translate(14.205 -373.843)" fill="#fff"/>
    </g>
    <g id="Group_390751" data-name="Group 390751">
      <path id="Path_776328" data-name="Path 776328" d="M32.38,370.16a1.877,1.877,0,1,1-1.876-1.876A1.876,1.876,0,0,1,32.38,370.16Z" transform="translate(-28.627 -368.284)" fill="#fff"/>
      <path id="Path_776329" data-name="Path 776329" d="M38.27,370.16a1.877,1.877,0,1,1-1.876-1.876A1.876,1.876,0,0,1,38.27,370.16Z" transform="translate(-22.508 -368.284)" fill="#fff"/>
      <path id="Path_776330" data-name="Path 776330" d="M44.159,370.16a1.876,1.876,0,1,1-1.876-1.876A1.876,1.876,0,0,1,44.159,370.16Z" transform="translate(-16.389 -368.284)" fill="#fff"/>
      <path id="Path_776331" data-name="Path 776331" d="M50.049,370.16a1.876,1.876,0,1,1-1.876-1.876A1.876,1.876,0,0,1,50.049,370.16Z" transform="translate(-10.27 -368.284)" fill="#fff"/>
      <path id="Path_776332" data-name="Path 776332" d="M55.941,370.16a1.877,1.877,0,1,1-1.878-1.876A1.877,1.877,0,0,1,55.941,370.16Z" transform="translate(-4.152 -368.284)" fill="#fff"/>
      <path id="Path_776333" data-name="Path 776333" d="M61.831,370.16a1.877,1.877,0,1,1-1.876-1.876A1.876,1.876,0,0,1,61.831,370.16Z" transform="translate(1.967 -368.284)" fill="#fff"/>
      <path id="Path_776334" data-name="Path 776334" d="M67.721,370.16a1.877,1.877,0,1,1-1.876-1.876A1.876,1.876,0,0,1,67.721,370.16Z" transform="translate(8.086 -368.284)" fill="#fff"/>
      <path id="Path_776335" data-name="Path 776335" d="M73.61,370.16a1.876,1.876,0,1,1-1.876-1.876A1.876,1.876,0,0,1,73.61,370.16Z" transform="translate(14.205 -368.284)" fill="#fff"/>
    </g>
  </g>
</svg>
