<svg xmlns="http://www.w3.org/2000/svg" width="56.157" height="41.157" viewBox="0 0 56.157 41.157">
  <g id="Group_1059850" data-name="Group 1059850" transform="translate(-512.843 -616)">
    <circle id="Ellipse_49163" data-name="Ellipse 49163" cx="20.5" cy="20.5" r="20.5" transform="translate(528 616)" fill="#ceedff"/>
    <g id="smile" transform="translate(512.843 618.843)">
      <g id="Group_1059838" data-name="Group 1059838">
        <g id="Group_1059837" data-name="Group 1059837">
          <path id="Path_1456379" data-name="Path 1456379" d="M120.381,224.212a.833.833,0,0,0-1.176.065,9.266,9.266,0,0,1-13.751,0,.833.833,0,0,0-1.241,1.111,10.932,10.932,0,0,0,16.234,0A.833.833,0,0,0,120.381,224.212Z" transform="translate(-93.172 -200.678)" fill="#30243d"/>
          <path id="Path_1456380" data-name="Path 1456380" d="M19.157,0A19.157,19.157,0,1,0,38.314,19.157,19.179,19.179,0,0,0,19.157,0Zm0,36.648A17.491,17.491,0,1,1,36.648,19.157,17.51,17.51,0,0,1,19.157,36.648Z" fill="#30243d"/>
          <path id="Path_1456381" data-name="Path 1456381" d="M212.165,128A4.169,4.169,0,0,0,208,132.165a.833.833,0,1,0,1.666,0,2.5,2.5,0,0,1,5,0,.833.833,0,0,0,1.666,0A4.169,4.169,0,0,0,212.165,128Z" transform="translate(-186.344 -114.673)" fill="#30243d"/>
          <path id="Path_1456382" data-name="Path 1456382" d="M86.663,132.165a.833.833,0,1,0,1.666,0,4.165,4.165,0,1,0-8.329,0,.833.833,0,1,0,1.666,0,2.5,2.5,0,1,1,5,0Z" transform="translate(-71.671 -114.673)" fill="#30243d"/>
        </g>
      </g>
    </g>
  </g>
</svg>
