<svg xmlns="http://www.w3.org/2000/svg" width="205.512" height="30.875" viewBox="0 0 205.512 30.875">
  <g id="Group_1059864" data-name="Group 1059864" transform="matrix(0.998, -0.07, 0.07, 0.998, -74.026, -157.38)">
    <path id="Path_1456378" data-name="Path 1456378" d="M66.32,183.645c1.625.016,3.249-.079,4.872-.13.661-.021,1.321-.057,1.981-.09l8.732-.434q5.22-.259,10.44-.552l14.912-.832c1.139-.063,2.279-.107,3.419-.16q4.345-.206,8.688-.409l8.69-.407c1.133-.053,2.268-.122,3.4-.159q6.931-.22,13.865-.436l8.525-.268c1.112-.035,2.227-.088,3.339-.1q6.7-.1,13.4-.2,6.613-.1,13.226-.2c1.164-.017,2.329-.009,3.491-.014q4.318-.015,8.635-.034,6.712-.025,13.425-.051c1.463-.007,2.928.01,4.391.014l9.193.032.76,0q-10.346.14-20.694.29l-8.641.128c-1.243.018-2.487.023-3.729.055q-6.251.163-12.5.339l-14.45.39c-.809.022-1.619.068-2.427.106l-7.695.355q-7.8.359-15.608.719c-.77.036-1.539.09-2.308.143q-3.811.262-7.623.526-6.828.471-13.655.943c-1.255.087-2.509.21-3.762.316l-8.744.736c-3.7.312-7.411.614-11.114.937q-7.734.673-15.464,1.35l-3.709.323c-2.216.194-4.425.474-6.637.717a.433.433,0,1,0,0,.866q1.212.054,2.425.1a1.574,1.574,0,0,0,1.427,2.262c6.32-.394,12.638-.822,18.965-1.124l16.475-.784,18.215-.868,5.734-.274c.552-.025,1.1-.061,1.656-.075q14.672-.391,29.342-.77l15.681-.411q2.835-.075,5.665-.122,15.006-.234,30.013-.469l12.859-.206c3.66-.059,7.32-.084,10.978-.221l9.068-.343c1.508-.057,3.02-.093,4.527-.188q5.147-.324,10.293-.664l-.008.012a1.427,1.427,0,0,0,.512,1.954,1.366,1.366,0,0,0,1.1.144q1.122-.445,2.235-.912l-.047.02.165-.07.191-.08-.07.029,1.187-.5c.414-.173.828-.347,1.24-.528.449-.2.879-.434,1.311-.665a1.594,1.594,0,0,0,.572-2.179,1.534,1.534,0,0,0-.951-.732c-.384-.066-.766-.118-1.151-.167a2.051,2.051,0,0,0-.258-.015c-.261,0-.532.037-.78.054-.583.041-1.162.128-1.745.17l-1.425.1q-1.92.14-3.838.278c-.33.024-.662.044-.992.066a1.213,1.213,0,0,0,.257-.47,1.288,1.288,0,0,0,.1-.441c.014-.109.029-.218.044-.326a1.24,1.24,0,0,0-.071-.406l.1-.044a1.614,1.614,0,0,0,.575-.577,1.6,1.6,0,0,0,0-1.622c-.083-.109-.167-.217-.251-.326a1.614,1.614,0,0,0-.709-.413,4.24,4.24,0,0,0-1.533-.234c-.428,0-.858.031-1.281.035l-1.845.018c-.87.009-1.741.021-2.611.026q-3.449.018-6.9.035c-2.163.012-4.326.01-6.489.009q-2.949,0-5.9,0c-7.838.034-15.674.047-23.511.127q-8.816.087-17.63.177-3.941.041-7.881.123l-17.665.374-5.038.107c-.974.021-1.948.072-2.922.109q-8.728.331-17.459.662l-5.329.2c-1,.037-1.992.1-2.988.156q-8.67.467-17.342.931-4.478.241-8.95.529-7.66.483-15.32.967c-4.424.277-8.851.518-13.276.777l-2.1.122c-1.132.066-2.268.112-3.4.162-1.006.045-2.017.073-3.025.047a.672.672,0,0,0-.647-.452c-.65.052-1.3.122-1.949.193a.724.724,0,0,0-.679.515.71.71,0,0,0,.492.867c.282.067.562.138.846.2a6.407,6.407,0,0,0,.852.105C64.827,183.623,65.575,183.638,66.32,183.645Zm178.814-2.453,2.849,0a1.54,1.54,0,0,0,.384.557c-.368.025-.735.05-1.1.063l-2.077.077-9.068.341c-1.384.051-2.768.128-4.152.15q-3.243.049-6.487.1-7.411.117-14.824.235-14.388.233-28.778.455c-6.87.11-13.737.324-20.6.5q-15.521.414-31.043.824c-2.075.055-4.149.187-6.222.287q-8.81.423-17.62.845l-17.3.828-1.6.077q2.331-.188,4.663-.368l16.281-1.245,5.686-.434c.977-.074,1.957-.121,2.935-.182l16.93-1.025c1.1-.068,2.207-.157,3.311-.2l4.77-.185,17.456-.677,3.841-.15c.337-.012.675-.014,1.012-.021l2.7-.054,17.492-.357c2.687-.055,5.373-.118,8.059-.141,8.67-.07,17.339-.16,26.009-.2C227.467,181.26,236.3,181.2,245.134,181.192Z" fill="#2188c4"/>
    <circle id="Ellipse_49162" data-name="Ellipse 49162" cx="0.434" cy="0.434" r="0.434" transform="translate(77.374 193.257)" fill="#2188c4"/>
  </g>
</svg>
