<svg xmlns="http://www.w3.org/2000/svg" width="134.641" height="135.157" viewBox="0 0 134.641 135.157">
  <g id="Group_391446" data-name="Group 391446" transform="translate(70.143 0.705) rotate(49)" opacity="0.23">
    <g id="Group_390744" data-name="Group 390744" transform="translate(0 87.852)">
      <path id="Path_776272" data-name="Path 776272" d="M32.783,409.276a2.078,2.078,0,1,1-2.077-2.077A2.077,2.077,0,0,1,32.783,409.276Z" transform="translate(-28.627 -407.199)" fill="#101011" stroke="rgba(0,0,0,0)" stroke-width="1"/>
      <path id="Path_776273" data-name="Path 776273" d="M38.673,409.276A2.078,2.078,0,1,1,36.6,407.2,2.077,2.077,0,0,1,38.673,409.276Z" transform="translate(-21.22 -407.199)" fill="#101011" stroke="rgba(0,0,0,0)" stroke-width="1"/>
      <path id="Path_776274" data-name="Path 776274" d="M44.562,409.276a2.077,2.077,0,1,1-2.077-2.077A2.077,2.077,0,0,1,44.562,409.276Z" transform="translate(-13.812 -407.199)" fill="#101011" stroke="rgba(0,0,0,0)" stroke-width="1"/>
      <path id="Path_776275" data-name="Path 776275" d="M50.452,409.276a2.077,2.077,0,1,1-2.077-2.077A2.077,2.077,0,0,1,50.452,409.276Z" transform="translate(-6.405 -407.199)" fill="#101011" stroke="rgba(0,0,0,0)" stroke-width="1"/>
      <path id="Path_776276" data-name="Path 776276" d="M56.344,409.276a2.078,2.078,0,1,1-2.079-2.077A2.078,2.078,0,0,1,56.344,409.276Z" transform="translate(1.002 -407.199)" fill="#101011" stroke="rgba(0,0,0,0)" stroke-width="1"/>
      <path id="Path_776277" data-name="Path 776277" d="M62.234,409.276a2.078,2.078,0,1,1-2.077-2.077A2.077,2.077,0,0,1,62.234,409.276Z" transform="translate(8.408 -407.199)" fill="#101011" stroke="rgba(0,0,0,0)" stroke-width="1"/>
      <path id="Path_776278" data-name="Path 776278" d="M68.124,409.276a2.078,2.078,0,1,1-2.077-2.077A2.077,2.077,0,0,1,68.124,409.276Z" transform="translate(15.815 -407.199)" fill="#101011" stroke="rgba(0,0,0,0)" stroke-width="1"/>
      <path id="Path_776279" data-name="Path 776279" d="M74.013,409.276a2.077,2.077,0,1,1-2.077-2.077A2.077,2.077,0,0,1,74.013,409.276Z" transform="translate(23.223 -407.199)" fill="#101011" stroke="rgba(0,0,0,0)" stroke-width="1"/>
    </g>
    <g id="Group_390745" data-name="Group 390745" transform="translate(0 75.3)">
      <path id="Path_776280" data-name="Path 776280" d="M32.783,403.718a2.078,2.078,0,1,1-2.077-2.079A2.077,2.077,0,0,1,32.783,403.718Z" transform="translate(-28.627 -401.639)" fill="#101011" stroke="rgba(0,0,0,0)" stroke-width="1"/>
      <path id="Path_776281" data-name="Path 776281" d="M38.673,403.718a2.078,2.078,0,1,1-2.077-2.079A2.077,2.077,0,0,1,38.673,403.718Z" transform="translate(-21.22 -401.639)" fill="#101011" stroke="rgba(0,0,0,0)" stroke-width="1"/>
      <path id="Path_776282" data-name="Path 776282" d="M44.562,403.718a2.077,2.077,0,1,1-2.077-2.079A2.077,2.077,0,0,1,44.562,403.718Z" transform="translate(-13.812 -401.639)" fill="#101011" stroke="rgba(0,0,0,0)" stroke-width="1"/>
      <path id="Path_776283" data-name="Path 776283" d="M50.452,403.718a2.077,2.077,0,1,1-2.077-2.079A2.077,2.077,0,0,1,50.452,403.718Z" transform="translate(-6.405 -401.639)" fill="#101011" stroke="rgba(0,0,0,0)" stroke-width="1"/>
      <path id="Path_776284" data-name="Path 776284" d="M56.344,403.718a2.078,2.078,0,1,1-2.079-2.079A2.078,2.078,0,0,1,56.344,403.718Z" transform="translate(1.002 -401.639)" fill="#101011" stroke="rgba(0,0,0,0)" stroke-width="1"/>
      <path id="Path_776285" data-name="Path 776285" d="M62.234,403.718a2.078,2.078,0,1,1-2.077-2.079A2.077,2.077,0,0,1,62.234,403.718Z" transform="translate(8.408 -401.639)" fill="#101011" stroke="rgba(0,0,0,0)" stroke-width="1"/>
      <path id="Path_776286" data-name="Path 776286" d="M68.124,403.718a2.078,2.078,0,1,1-2.077-2.079A2.077,2.077,0,0,1,68.124,403.718Z" transform="translate(15.815 -401.639)" fill="#101011" stroke="rgba(0,0,0,0)" stroke-width="1"/>
      <path id="Path_776287" data-name="Path 776287" d="M74.013,403.718a2.077,2.077,0,1,1-2.077-2.079A2.077,2.077,0,0,1,74.013,403.718Z" transform="translate(23.223 -401.639)" fill="#101011" stroke="rgba(0,0,0,0)" stroke-width="1"/>
    </g>
    <g id="Group_390746" data-name="Group 390746" transform="translate(0 62.75)">
      <path id="Path_776288" data-name="Path 776288" d="M32.783,398.159a2.078,2.078,0,1,1-2.077-2.079A2.077,2.077,0,0,1,32.783,398.159Z" transform="translate(-28.627 -396.08)" fill="#101011" stroke="rgba(0,0,0,0)" stroke-width="1"/>
      <path id="Path_776289" data-name="Path 776289" d="M38.673,398.159A2.078,2.078,0,1,1,36.6,396.08,2.077,2.077,0,0,1,38.673,398.159Z" transform="translate(-21.22 -396.08)" fill="#101011" stroke="rgba(0,0,0,0)" stroke-width="1"/>
      <path id="Path_776290" data-name="Path 776290" d="M44.562,398.159a2.077,2.077,0,1,1-2.077-2.079A2.077,2.077,0,0,1,44.562,398.159Z" transform="translate(-13.812 -396.08)" fill="#101011" stroke="rgba(0,0,0,0)" stroke-width="1"/>
      <path id="Path_776291" data-name="Path 776291" d="M50.452,398.159a2.077,2.077,0,1,1-2.077-2.079A2.077,2.077,0,0,1,50.452,398.159Z" transform="translate(-6.405 -396.08)" fill="#101011" stroke="rgba(0,0,0,0)" stroke-width="1"/>
      <path id="Path_776292" data-name="Path 776292" d="M56.344,398.159a2.078,2.078,0,1,1-2.079-2.079A2.078,2.078,0,0,1,56.344,398.159Z" transform="translate(1.002 -396.08)" fill="#101011" stroke="rgba(0,0,0,0)" stroke-width="1"/>
      <path id="Path_776293" data-name="Path 776293" d="M62.234,398.159a2.078,2.078,0,1,1-2.077-2.079A2.077,2.077,0,0,1,62.234,398.159Z" transform="translate(8.408 -396.08)" fill="#101011" stroke="rgba(0,0,0,0)" stroke-width="1"/>
      <path id="Path_776294" data-name="Path 776294" d="M68.124,398.159a2.078,2.078,0,1,1-2.077-2.079A2.077,2.077,0,0,1,68.124,398.159Z" transform="translate(15.815 -396.08)" fill="#101011" stroke="rgba(0,0,0,0)" stroke-width="1"/>
      <path id="Path_776295" data-name="Path 776295" d="M74.013,398.159a2.077,2.077,0,1,1-2.077-2.079A2.077,2.077,0,0,1,74.013,398.159Z" transform="translate(23.223 -396.08)" fill="#101011" stroke="rgba(0,0,0,0)" stroke-width="1"/>
    </g>
    <g id="Group_390747" data-name="Group 390747" transform="translate(0 50.201)">
      <path id="Path_776296" data-name="Path 776296" d="M32.783,392.6a2.078,2.078,0,1,1-2.077-2.077A2.078,2.078,0,0,1,32.783,392.6Z" transform="translate(-28.627 -390.521)" fill="#101011" stroke="rgba(0,0,0,0)" stroke-width="1"/>
      <path id="Path_776297" data-name="Path 776297" d="M38.673,392.6a2.078,2.078,0,1,1-2.077-2.077A2.078,2.078,0,0,1,38.673,392.6Z" transform="translate(-21.22 -390.521)" fill="#101011" stroke="rgba(0,0,0,0)" stroke-width="1"/>
      <path id="Path_776298" data-name="Path 776298" d="M44.562,392.6a2.077,2.077,0,1,1-2.077-2.077A2.078,2.078,0,0,1,44.562,392.6Z" transform="translate(-13.812 -390.521)" fill="#101011" stroke="rgba(0,0,0,0)" stroke-width="1"/>
      <path id="Path_776299" data-name="Path 776299" d="M50.452,392.6a2.077,2.077,0,1,1-2.077-2.077A2.078,2.078,0,0,1,50.452,392.6Z" transform="translate(-6.405 -390.521)" fill="#101011" stroke="rgba(0,0,0,0)" stroke-width="1"/>
      <path id="Path_776300" data-name="Path 776300" d="M56.344,392.6a2.078,2.078,0,1,1-2.079-2.077A2.078,2.078,0,0,1,56.344,392.6Z" transform="translate(1.002 -390.521)" fill="#101011" stroke="rgba(0,0,0,0)" stroke-width="1"/>
      <path id="Path_776301" data-name="Path 776301" d="M62.234,392.6a2.078,2.078,0,1,1-2.077-2.077A2.078,2.078,0,0,1,62.234,392.6Z" transform="translate(8.408 -390.521)" fill="#101011" stroke="rgba(0,0,0,0)" stroke-width="1"/>
      <path id="Path_776302" data-name="Path 776302" d="M68.124,392.6a2.078,2.078,0,1,1-2.077-2.077A2.078,2.078,0,0,1,68.124,392.6Z" transform="translate(15.815 -390.521)" fill="#101011" stroke="rgba(0,0,0,0)" stroke-width="1"/>
      <path id="Path_776303" data-name="Path 776303" d="M74.013,392.6a2.077,2.077,0,1,1-2.077-2.077A2.078,2.078,0,0,1,74.013,392.6Z" transform="translate(23.223 -390.521)" fill="#101011" stroke="rgba(0,0,0,0)" stroke-width="1"/>
    </g>
    <g id="Group_390748" data-name="Group 390748" transform="translate(0 37.651)">
      <path id="Path_776304" data-name="Path 776304" d="M32.783,387.039a2.078,2.078,0,1,1-2.077-2.077A2.077,2.077,0,0,1,32.783,387.039Z" transform="translate(-28.627 -384.962)" fill="#101011" stroke="rgba(0,0,0,0)" stroke-width="1"/>
      <path id="Path_776305" data-name="Path 776305" d="M38.673,387.039a2.078,2.078,0,1,1-2.077-2.077A2.077,2.077,0,0,1,38.673,387.039Z" transform="translate(-21.22 -384.962)" fill="#101011" stroke="rgba(0,0,0,0)" stroke-width="1"/>
      <path id="Path_776306" data-name="Path 776306" d="M44.562,387.039a2.077,2.077,0,1,1-2.077-2.077A2.077,2.077,0,0,1,44.562,387.039Z" transform="translate(-13.812 -384.962)" fill="#101011" stroke="rgba(0,0,0,0)" stroke-width="1"/>
      <path id="Path_776307" data-name="Path 776307" d="M50.452,387.039a2.077,2.077,0,1,1-2.077-2.077A2.077,2.077,0,0,1,50.452,387.039Z" transform="translate(-6.405 -384.962)" fill="#101011" stroke="rgba(0,0,0,0)" stroke-width="1"/>
      <path id="Path_776308" data-name="Path 776308" d="M56.344,387.039a2.078,2.078,0,1,1-2.079-2.077A2.078,2.078,0,0,1,56.344,387.039Z" transform="translate(1.002 -384.962)" fill="#101011" stroke="rgba(0,0,0,0)" stroke-width="1"/>
      <path id="Path_776309" data-name="Path 776309" d="M62.234,387.039a2.078,2.078,0,1,1-2.077-2.077A2.077,2.077,0,0,1,62.234,387.039Z" transform="translate(8.408 -384.962)" fill="#101011" stroke="rgba(0,0,0,0)" stroke-width="1"/>
      <path id="Path_776310" data-name="Path 776310" d="M68.124,387.039a2.078,2.078,0,1,1-2.077-2.077A2.077,2.077,0,0,1,68.124,387.039Z" transform="translate(15.815 -384.962)" fill="#101011" stroke="rgba(0,0,0,0)" stroke-width="1"/>
      <path id="Path_776311" data-name="Path 776311" d="M74.013,387.039a2.077,2.077,0,1,1-2.077-2.077A2.077,2.077,0,0,1,74.013,387.039Z" transform="translate(23.223 -384.962)" fill="#101011" stroke="rgba(0,0,0,0)" stroke-width="1"/>
    </g>
    <g id="Group_390749" data-name="Group 390749" transform="translate(0 25.102)">
      <path id="Path_776312" data-name="Path 776312" d="M32.783,381.48a2.078,2.078,0,1,1-2.077-2.077A2.077,2.077,0,0,1,32.783,381.48Z" transform="translate(-28.627 -379.403)" fill="#101011" stroke="rgba(0,0,0,0)" stroke-width="1"/>
      <path id="Path_776313" data-name="Path 776313" d="M38.673,381.48A2.078,2.078,0,1,1,36.6,379.4,2.077,2.077,0,0,1,38.673,381.48Z" transform="translate(-21.22 -379.403)" fill="#101011" stroke="rgba(0,0,0,0)" stroke-width="1"/>
      <path id="Path_776314" data-name="Path 776314" d="M44.562,381.48a2.077,2.077,0,1,1-2.077-2.077A2.077,2.077,0,0,1,44.562,381.48Z" transform="translate(-13.812 -379.403)" fill="#101011" stroke="rgba(0,0,0,0)" stroke-width="1"/>
      <path id="Path_776315" data-name="Path 776315" d="M50.452,381.48a2.077,2.077,0,1,1-2.077-2.077A2.077,2.077,0,0,1,50.452,381.48Z" transform="translate(-6.405 -379.403)" fill="#101011" stroke="rgba(0,0,0,0)" stroke-width="1"/>
      <path id="Path_776316" data-name="Path 776316" d="M56.344,381.48a2.078,2.078,0,1,1-2.079-2.077A2.078,2.078,0,0,1,56.344,381.48Z" transform="translate(1.002 -379.403)" fill="#101011" stroke="rgba(0,0,0,0)" stroke-width="1"/>
      <path id="Path_776317" data-name="Path 776317" d="M62.234,381.48a2.078,2.078,0,1,1-2.077-2.077A2.077,2.077,0,0,1,62.234,381.48Z" transform="translate(8.408 -379.403)" fill="#101011" stroke="rgba(0,0,0,0)" stroke-width="1"/>
      <path id="Path_776318" data-name="Path 776318" d="M68.124,381.48a2.078,2.078,0,1,1-2.077-2.077A2.077,2.077,0,0,1,68.124,381.48Z" transform="translate(15.815 -379.403)" fill="#101011" stroke="rgba(0,0,0,0)" stroke-width="1"/>
      <path id="Path_776319" data-name="Path 776319" d="M74.013,381.48a2.077,2.077,0,1,1-2.077-2.077A2.077,2.077,0,0,1,74.013,381.48Z" transform="translate(23.223 -379.403)" fill="#101011" stroke="rgba(0,0,0,0)" stroke-width="1"/>
    </g>
    <g id="Group_390750" data-name="Group 390750" transform="translate(0 12.55)">
      <path id="Path_776320" data-name="Path 776320" d="M32.783,375.922a2.078,2.078,0,1,1-2.077-2.079A2.077,2.077,0,0,1,32.783,375.922Z" transform="translate(-28.627 -373.843)" fill="#101011" stroke="rgba(0,0,0,0)" stroke-width="1"/>
      <path id="Path_776321" data-name="Path 776321" d="M38.673,375.922a2.078,2.078,0,1,1-2.077-2.079A2.077,2.077,0,0,1,38.673,375.922Z" transform="translate(-21.22 -373.843)" fill="#101011" stroke="rgba(0,0,0,0)" stroke-width="1"/>
      <path id="Path_776322" data-name="Path 776322" d="M44.562,375.922a2.077,2.077,0,1,1-2.077-2.079A2.077,2.077,0,0,1,44.562,375.922Z" transform="translate(-13.812 -373.843)" fill="#101011" stroke="rgba(0,0,0,0)" stroke-width="1"/>
      <path id="Path_776323" data-name="Path 776323" d="M50.452,375.922a2.077,2.077,0,1,1-2.077-2.079A2.077,2.077,0,0,1,50.452,375.922Z" transform="translate(-6.405 -373.843)" fill="#101011" stroke="rgba(0,0,0,0)" stroke-width="1"/>
      <path id="Path_776324" data-name="Path 776324" d="M56.344,375.922a2.078,2.078,0,1,1-2.079-2.079A2.078,2.078,0,0,1,56.344,375.922Z" transform="translate(1.002 -373.843)" fill="#101011" stroke="rgba(0,0,0,0)" stroke-width="1"/>
      <path id="Path_776325" data-name="Path 776325" d="M62.234,375.922a2.078,2.078,0,1,1-2.077-2.079A2.077,2.077,0,0,1,62.234,375.922Z" transform="translate(8.408 -373.843)" fill="#101011" stroke="rgba(0,0,0,0)" stroke-width="1"/>
      <path id="Path_776326" data-name="Path 776326" d="M68.124,375.922a2.078,2.078,0,1,1-2.077-2.079A2.077,2.077,0,0,1,68.124,375.922Z" transform="translate(15.815 -373.843)" fill="#101011" stroke="rgba(0,0,0,0)" stroke-width="1"/>
      <path id="Path_776327" data-name="Path 776327" d="M74.013,375.922a2.077,2.077,0,1,1-2.077-2.079A2.077,2.077,0,0,1,74.013,375.922Z" transform="translate(23.223 -373.843)" fill="#101011" stroke="rgba(0,0,0,0)" stroke-width="1"/>
    </g>
    <g id="Group_390751" data-name="Group 390751">
      <path id="Path_776328" data-name="Path 776328" d="M32.783,370.361a2.078,2.078,0,1,1-2.077-2.077A2.078,2.078,0,0,1,32.783,370.361Z" transform="translate(-28.627 -368.284)" fill="#101011" stroke="rgba(0,0,0,0)" stroke-width="1"/>
      <path id="Path_776329" data-name="Path 776329" d="M38.673,370.361a2.078,2.078,0,1,1-2.077-2.077A2.078,2.078,0,0,1,38.673,370.361Z" transform="translate(-21.22 -368.284)" fill="#101011" stroke="rgba(0,0,0,0)" stroke-width="1"/>
      <path id="Path_776330" data-name="Path 776330" d="M44.562,370.361a2.077,2.077,0,1,1-2.077-2.077A2.078,2.078,0,0,1,44.562,370.361Z" transform="translate(-13.812 -368.284)" fill="#101011" stroke="rgba(0,0,0,0)" stroke-width="1"/>
      <path id="Path_776331" data-name="Path 776331" d="M50.452,370.361a2.077,2.077,0,1,1-2.077-2.077A2.078,2.078,0,0,1,50.452,370.361Z" transform="translate(-6.405 -368.284)" fill="#101011" stroke="rgba(0,0,0,0)" stroke-width="1"/>
      <path id="Path_776332" data-name="Path 776332" d="M56.344,370.361a2.078,2.078,0,1,1-2.079-2.077A2.078,2.078,0,0,1,56.344,370.361Z" transform="translate(1.002 -368.284)" fill="#101011" stroke="rgba(0,0,0,0)" stroke-width="1"/>
      <path id="Path_776333" data-name="Path 776333" d="M62.234,370.361a2.078,2.078,0,1,1-2.077-2.077A2.078,2.078,0,0,1,62.234,370.361Z" transform="translate(8.408 -368.284)" fill="#101011" stroke="rgba(0,0,0,0)" stroke-width="1"/>
      <path id="Path_776334" data-name="Path 776334" d="M68.124,370.361a2.078,2.078,0,1,1-2.077-2.077A2.078,2.078,0,0,1,68.124,370.361Z" transform="translate(15.815 -368.284)" fill="#101011" stroke="rgba(0,0,0,0)" stroke-width="1"/>
      <path id="Path_776335" data-name="Path 776335" d="M74.013,370.361a2.077,2.077,0,1,1-2.077-2.077A2.078,2.078,0,0,1,74.013,370.361Z" transform="translate(23.223 -368.284)" fill="#101011" stroke="rgba(0,0,0,0)" stroke-width="1"/>
    </g>
  </g>
</svg>
