<svg xmlns="http://www.w3.org/2000/svg" xmlns:xlink="http://www.w3.org/1999/xlink" width="88" height="76" viewBox="0 0 88 76">
  <defs>
    <clipPath id="clip-path">
      <rect id="Rectangle_174663" data-name="Rectangle 174663" width="88" height="76" transform="translate(1352 150)" fill="#fff" stroke="#707070" stroke-width="1"/>
    </clipPath>
  </defs>
  <g id="Mask_Group_901603" data-name="Mask Group 901603" transform="translate(-1352 -150)" clip-path="url(#clip-path)">
    <g id="Group_1104292" data-name="Group 1104292">
      <path id="Path_1456383" data-name="Path 1456383" d="M540.9,152.7a2.224,2.224,0,0,0-1.509.74,16.975,16.975,0,0,0-1.251,1.443c-.266.324-.533.647-.8.972q-.573.7-1.139,1.407-.751.937-1.494,1.88c-.6.757-1.175,1.524-1.819,2.242a19.813,19.813,0,0,1-1.537,1.6c-.057-1.186-.056-2.377-.073-3.562-.009-.67-.022-1.34-.033-2.009-.007-.391-.017-.781-.026-1.171a13.079,13.079,0,0,0-.084-1.313,7.218,7.218,0,0,0-.179-1.021c-.059-.216-.165-.428-.245-.637a2.069,2.069,0,0,0-3.458-.913,4.919,4.919,0,0,0-.735.854,10.123,10.123,0,0,0-.541,1.06c-.122.253-.261.5-.392.749q-.357.683-.72,1.363a47.775,47.775,0,0,1-3.265,5.546q-.2.245-.421.477c-.045-.956-.068-1.913-.085-2.872-.013-.7-.018-1.391-.026-2.086,0-.439-.011-.879-.015-1.319a14.069,14.069,0,0,0-.125-1.854,8.089,8.089,0,0,0-.36-1.348,1.849,1.849,0,0,0-.823-1.071,1.728,1.728,0,0,0-.879-.238,2.02,2.02,0,0,0-.93.238,3.12,3.12,0,0,0-1.264,1.09c-.192.3-.32.634-.486.952-.228.436-.463.867-.7,1.3q-.592,1.108-1.191,2.211c-.351.651-.715,1.3-1.074,1.943a33.468,33.468,0,0,1-2.241,3.683c-.158.2-.316.408-.482.6-.141-1.142-.256-2.286-.321-3.435-.057-1.022-.109-2.045-.163-3.066-.023-.436-.069-.869-.1-1.3-.015-.2-.011-.4-.016-.6a6.9,6.9,0,0,0-.09-.867,2.857,2.857,0,0,0-.4-1.081,2.548,2.548,0,0,0-.756-.725,3.181,3.181,0,0,0-.734-.287,1.807,1.807,0,0,0-.961,0,1.882,1.882,0,0,0-1.079.83c-.347.522-.677,1.045-.974,1.6-.153.287-.3.576-.46.862q-.411.745-.819,1.491a42.336,42.336,0,0,1-2.855,4.706,10.355,10.355,0,0,1-1.163,1.22l-.038.024a41.464,41.464,0,0,1-1.113-4.148l-.185-.8c-.09-.389-.173-.78-.263-1.169-.1-.445-.259-.869-.4-1.3a4.073,4.073,0,0,0-.511-1.1,1.637,1.637,0,0,0-.38-.44,2.107,2.107,0,0,0-.862-.48c-.2-.039-.409-.069-.614-.091a3.846,3.846,0,0,0-.79.1,2.218,2.218,0,0,0-.854.488,2.648,2.648,0,0,0-.407.419c-.273.338-.542.69-.789,1.045-.2.282-.367.585-.551.875-.173.274-.35.547-.526.82-.3.475-.608.95-.906,1.43q-.619,1-1.24,2c-.36.581-.715,1.165-1.079,1.744-.424.677-.892,1.323-1.375,1.959a10.885,10.885,0,0,1-1.564,1.6,6.167,6.167,0,0,1-.595.37c-.077.025-.155.048-.234.069l-.048,0-.007-.008a7.6,7.6,0,0,1-.642-1.2,17.637,17.637,0,0,1-.964-3.506c-.128-.737-.27-1.474-.377-2.215-.075-.573-.16-1.144-.25-1.715-.023-.2-.046-.4-.077-.6a2.666,2.666,0,0,0-.226-.724,1.834,1.834,0,0,0-1.181-1.013,2.077,2.077,0,0,0-.955-.015l-.127.026a1.522,1.522,0,0,0-.671.39,2.908,2.908,0,0,0-.708,1.04c-.36.681-.776,1.338-1.168,2a66.126,66.126,0,0,1-3.826,5.985,13.2,13.2,0,0,1-1.847,1.924,6.3,6.3,0,0,1-.743.443c-.113-.3-.219-.6-.3-.909q-.151-.547-.3-1.1c-.159-.576-.279-1.165-.417-1.747s-.253-1.176-.378-1.763c-.1-.469-.2-.939-.293-1.408-.084-.413-.195-.817-.3-1.224-.082-.306-.134-.617-.224-.92a2.288,2.288,0,0,0-1.449-1.611,2.119,2.119,0,0,0-2.222.539,2.82,2.82,0,0,0-.472.744c-.146.313-.3.616-.461.923-.228.438-.435.886-.66,1.323a42.768,42.768,0,0,1-3.314,5.754,8.6,8.6,0,0,1-1.079,1.1,4.9,4.9,0,0,1-.5.313c-.081.026-.161.05-.243.072l-.009-.009a5.709,5.709,0,0,1-.442-.842,26.04,26.04,0,0,1-.879-2.819c-.155-.588-.333-1.176-.466-1.77q-.23-1.017-.458-2.034c-.068-.3-.135-.606-.19-.913a6.112,6.112,0,0,0-.314-1.213,2.1,2.1,0,0,0-.241-.5,6.3,6.3,0,0,0-.472-.612,1.263,1.263,0,0,0-.937-.387,1.37,1.37,0,0,0-1.143.655,7.865,7.865,0,0,0-.578.9c-.212.4-.372.839-.542,1.263-.316.734-.642,1.464-.963,2.2-.445,1.015-.88,2.034-1.389,3.019a20.624,20.624,0,0,1-1.641,2.833,8.135,8.135,0,0,1-.969,1.053,4.664,4.664,0,0,1-.447.259l-.075.025-.031-.034c-.052-.079-.1-.16-.146-.247a31.932,31.932,0,0,1-1.223-4.254q-.234-.985-.465-1.971c-.1-.416-.2-.831-.312-1.242a5.377,5.377,0,0,0-.365-.891,3.9,3.9,0,0,0-.708-.847,1.16,1.16,0,0,0-.83-.344,1.224,1.224,0,0,0-1.013.581,7.012,7.012,0,0,0-.566.859,12.6,12.6,0,0,0-.5,1.189q-.661,1.49-1.353,2.966c-.334.716-.671,1.429-1.017,2.139s-.717,1.428-1.123,2.116c-.356.607-.71,1.212-1.121,1.783a7.717,7.717,0,0,1-.936.971q-.072.048-.147.091c-.053.017-.1.032-.158.045-.057-.1-.109-.2-.159-.3a12.575,12.575,0,0,1-.4-1.983q-.124-.746-.25-1.493c-.153-1.17-.318-2.343-.4-3.52q-.089-1.349-.18-2.7c-.031-.477-.043-.956-.06-1.434a7.954,7.954,0,0,0-.147-1.212,3.882,3.882,0,0,0-.568-1.216,1.062,1.062,0,0,0-.629-.483,1.08,1.08,0,0,0-1.023.271,4.923,4.923,0,0,0-.787.794,8.573,8.573,0,0,0-.675,1.176c-.163.319-.341.632-.512.948q-.443.818-.889,1.636a53.213,53.213,0,0,1-3.994,6.547c-.289.361-.59.708-.9,1.052-.146.163-.291.323-.441.478-.153-.55-.273-1.108-.394-1.672-.139-.65-.255-1.308-.361-1.963q-.406-2.509-.78-5.021c-.1-.671-.214-1.34-.349-2-.089-.432-.185-.862-.272-1.3a1.784,1.784,0,0,0-.744-1.186,1.372,1.372,0,0,0-1.113-.1,1.357,1.357,0,0,0-.828.889c-.079.234-.129.475-.211.708q-.136.386-.273.769c-.535,1.513-1.116,3.008-1.7,4.505-.133.34-.275.676-.417,1.013a23.469,23.469,0,0,1-2.611,4.773,10.814,10.814,0,0,1-1.284,1.461,2.881,2.881,0,0,1-.268.156c-.024.008-.05.014-.074.019-.043,0-.085,0-.128,0-.01-.019-.021-.039-.03-.059a5.226,5.226,0,0,1-.161-.574c-.046-.622-.013-1.254-.006-1.877.006-.444.006-.889.016-1.333q.034-1.481.054-2.965c.012-.9.036-1.809.05-2.713.006-.406.012-.813.018-1.22.009-.661.032-1.319.023-1.979a17.046,17.046,0,0,0-.221-2.075.8.8,0,0,0-.568-.567.829.829,0,0,0-.918.373c-.143.211-.29.42-.43.634a5.336,5.336,0,0,0-.4.883,16.517,16.517,0,0,0-.627,1.976c-.177.651-.349,1.3-.541,1.95q-.471,1.581-.93,3.165-1.233,4.249-2.391,8.519a0,0,0,1,0,.006,0q1.567-3.789,3.08-7.6.641-1.617,1.27-3.238c.088-.228.176-.454.264-.683.237-.614.445-1.237.663-1.858-.025.457-.044.914-.064,1.372q-.065,1.459-.118,2.919c-.056,1.524-.094,3.048-.127,4.572-.013.547-.042,1.1-.042,1.643a4.538,4.538,0,0,0,.23,1.287,2.006,2.006,0,0,0,.812,1.176,2.48,2.48,0,0,0,2.354.036,7.232,7.232,0,0,0,2.039-2.01,22.86,22.86,0,0,0,3.063-5.718c.38-.945.719-1.907,1.066-2.864.236-.65.456-1.305.68-1.958l.005-.014c.082.466.145.937.216,1.406l-.005-.038q.348,2.607.7,5.215c.153,1.17.3,2.347.519,3.508.085.466.187.92.312,1.379a1.629,1.629,0,0,0,.691.987,1.714,1.714,0,0,0,1.255.14,4.051,4.051,0,0,0,1.886-1.258,22.127,22.127,0,0,0,1.746-2.142,46.352,46.352,0,0,0,3.564-6.191q.349-.678.687-1.359l.557-1.114.071-.145c.011.265.021.531.04.8q.051.768.1,1.533c.048.706.079,1.413.161,2.115q.163,1.395.328,2.79c.1.85.246,1.694.37,2.541a6.532,6.532,0,0,0,.329,1.576,2.893,2.893,0,0,0,.8,1.269,2.275,2.275,0,0,0,1.475.47,2.711,2.711,0,0,0,1.523-.522,8.36,8.36,0,0,0,2.27-2.631,34.6,34.6,0,0,0,1.727-3.208c.493-1.024.957-2.061,1.426-3.095q.386-.846.754-1.7.109.505.219,1.011.18.837.359,1.675c.182.864.359,1.73.576,2.587a7.64,7.64,0,0,0,.764,2.227,2.593,2.593,0,0,0,2.094,1.378,4.263,4.263,0,0,0,2.161-.644,6.863,6.863,0,0,0,1.756-1.722,13.81,13.81,0,0,0,1.372-2.173c.387-.741.751-1.494,1.084-2.26.443-1.02.856-2.053,1.269-3.085l.1-.247.016.074c.125.549.241,1.1.379,1.646.184.731.365,1.462.55,2.192.2.791.413,1.578.692,2.346a12.744,12.744,0,0,0,.517,1.223,3.407,3.407,0,0,0,.475.654,2.482,2.482,0,0,0,.593.527,2.57,2.57,0,0,0,.517.242,4.959,4.959,0,0,0,.827.123,3.891,3.891,0,0,0,.626-.065,3.2,3.2,0,0,0,.669-.176,6.462,6.462,0,0,0,2.184-1.519,10.1,10.1,0,0,0,.862-1.047c.252-.326.477-.674.7-1.018a27.137,27.137,0,0,0,1.368-2.379c.383-.739.748-1.487,1.116-2.233.155-.315.31-.63.46-.946l.131-.275c.06.244.117.488.166.735q.147.751.294,1.5.239,1.225.482,2.448c.148.747.3,1.494.464,2.237a10.707,10.707,0,0,0,.364,1.316,2.385,2.385,0,0,0,.511.873,5.6,5.6,0,0,0,.657.541,2.442,2.442,0,0,0,.784.327,2.213,2.213,0,0,0,.834.048,4.236,4.236,0,0,0,.851-.168,7.246,7.246,0,0,0,.985-.424,6.827,6.827,0,0,0,1.267-.9,10.9,10.9,0,0,0,1-.963,20.807,20.807,0,0,0,1.916-2.5c.826-1.186,1.518-2.466,2.227-3.725q.339-.6.675-1.208.1.655.207,1.311a26.158,26.158,0,0,0,.776,3.536,14.463,14.463,0,0,0,.9,2.271,6.428,6.428,0,0,0,.743,1.046,2.549,2.549,0,0,0,1.458.8,3.947,3.947,0,0,0,1.573-.008,4.942,4.942,0,0,0,1.262-.483,7.466,7.466,0,0,0,1.146-.821,8.389,8.389,0,0,0,1.038-.984,23.232,23.232,0,0,0,1.574-2.055c.54-.751,1-1.553,1.47-2.348.424-.722.853-1.44,1.279-2.161.283-.479.565-.959.856-1.434l.724-1.18c.129-.209.256-.421.385-.63.136.558.246,1.122.358,1.687.12.608.238,1.217.361,1.825.133.663.27,1.326.4,1.991.08.412.18.821.268,1.232q.036.2.086.4a3.779,3.779,0,0,0,.333.8,5.766,5.766,0,0,0,.4.531,3.3,3.3,0,0,0,.647.58,2.565,2.565,0,0,0,1.475.478,4.622,4.622,0,0,0,2.442-.723,7.307,7.307,0,0,0,1.125-.917,9.92,9.92,0,0,0,.819-.9,24.933,24.933,0,0,0,2.692-4.3q.2-.381.394-.764c.044.786.089,1.571.141,2.356.052.805.1,1.611.179,2.414.056.555.146,1.106.245,1.656l.048.193q.132.316.266.63a3.746,3.746,0,0,0,.506.693,3.2,3.2,0,0,0,.661.509,2.525,2.525,0,0,0,1.172.3,6.522,6.522,0,0,0,.956-.121,3.456,3.456,0,0,0,1.054-.458,8.316,8.316,0,0,0,2.176-2.279,23.154,23.154,0,0,0,1.769-2.839c.454-.815.861-1.658,1.287-2.489q.166-.325.331-.651-.011.528-.026,1.057-.031,1.124-.084,2.246c-.018.375-.035.751-.054,1.125-.008.155-.019.31-.028.465a4.61,4.61,0,0,0,.1.976,3.554,3.554,0,0,0,.314.829,2.318,2.318,0,0,0,.5.722l.109.092a2.131,2.131,0,0,0,.94.548,4.223,4.223,0,0,0,.9.151,3.849,3.849,0,0,0,.962-.109,2.87,2.87,0,0,0,.568-.16,7.145,7.145,0,0,0,2.8-2.029,17.738,17.738,0,0,0,1.876-2.65c.329-.528.625-1.075.912-1.627,0,.7-.007,1.394-.026,2.09-.013.456-.013.91-.023,1.365a5.242,5.242,0,0,0,.126,1.013c.019.067.041.135.062.2q.149.367.305.73a4.28,4.28,0,0,0,.59.778,2.925,2.925,0,0,0,1.135.664,3.708,3.708,0,0,0,2.1.146,5.218,5.218,0,0,0,1.59-.657,8.84,8.84,0,0,0,2.355-2.118c.376-.461.737-.938,1.093-1.413.632-.842,1.156-1.763,1.711-2.655.189-.3.368-.61.551-.915q.584-.972,1.16-1.948c.333-.563.653-1.14.989-1.706.1.357.206.711.292,1.073.14.6.258,1.2.389,1.8.161.741.331,1.48.492,2.222.074.341.189.68.283,1.016.1.372.206.744.325,1.11a6.82,6.82,0,0,0,2.571,3.87,0,0,0,0,0,0,0c-.084-.094-.165-.191-.243-.289a6.761,6.761,0,0,1-.658-1.177,11.081,11.081,0,0,1-.61-2.607c-.173-1.4-.2-2.8-.242-4.209-.013-.41-.027-.818-.035-1.228-.018-.894-.1-1.775-.191-2.664a5.394,5.394,0,0,0-.207-1.114,3.068,3.068,0,0,0-.307-.646,2.277,2.277,0,0,0-.636-.645A2.125,2.125,0,0,0,540.9,152.7ZM409.86,170.965h0Zm.069-.009-.022,0h0l.021,0-.026-.005h0l.031,0h0l.068.009h0C409.975,170.963,409.952,170.959,409.929,170.955Zm.073.01h0l.037.005Zm23.727.387h0l.025,0Zm24.109-4.034c-.022-.017-.044-.035-.065-.055l.07.054Zm12.741.114h0Zm.014.007v0l.148.063A1.462,1.462,0,0,1,470.593,167.439Zm13.721-.989h0l.092.013C484.375,166.459,484.344,166.455,484.314,166.45Zm56.2-10.94c.021.008.041.016.061.025h0Z" transform="translate(957.448 12.38)" fill="#161616"/>
      <path id="Path_1456384" data-name="Path 1456384" d="M540.9,152.7a2.224,2.224,0,0,0-1.509.74,16.975,16.975,0,0,0-1.251,1.443c-.266.324-.533.647-.8.972q-.573.7-1.139,1.407-.751.937-1.494,1.88c-.6.757-1.175,1.524-1.819,2.242a19.813,19.813,0,0,1-1.537,1.6c-.057-1.186-.056-2.377-.073-3.562-.009-.67-.022-1.34-.033-2.009-.007-.391-.017-.781-.026-1.171a13.079,13.079,0,0,0-.084-1.313,7.218,7.218,0,0,0-.179-1.021c-.059-.216-.165-.428-.245-.637a2.069,2.069,0,0,0-3.458-.913,4.919,4.919,0,0,0-.735.854,10.123,10.123,0,0,0-.541,1.06c-.122.253-.261.5-.392.749q-.357.683-.72,1.363a47.775,47.775,0,0,1-3.265,5.546q-.2.245-.421.477c-.045-.956-.068-1.913-.085-2.872-.013-.7-.018-1.391-.026-2.086,0-.439-.011-.879-.015-1.319a14.069,14.069,0,0,0-.125-1.854,8.089,8.089,0,0,0-.36-1.348,1.849,1.849,0,0,0-.823-1.071,1.728,1.728,0,0,0-.879-.238,2.02,2.02,0,0,0-.93.238,3.12,3.12,0,0,0-1.264,1.09c-.192.3-.32.634-.486.952-.228.436-.463.867-.7,1.3q-.592,1.108-1.191,2.211c-.351.651-.715,1.3-1.074,1.943a33.468,33.468,0,0,1-2.241,3.683c-.158.2-.316.408-.482.6-.141-1.142-.256-2.286-.321-3.435-.057-1.022-.109-2.045-.163-3.066-.023-.436-.069-.869-.1-1.3-.015-.2-.011-.4-.016-.6a6.9,6.9,0,0,0-.09-.867,2.857,2.857,0,0,0-.4-1.081,2.548,2.548,0,0,0-.756-.725,3.181,3.181,0,0,0-.734-.287,1.807,1.807,0,0,0-.961,0,1.882,1.882,0,0,0-1.079.83c-.347.522-.677,1.045-.974,1.6-.153.287-.3.576-.46.862q-.411.745-.819,1.491a42.336,42.336,0,0,1-2.855,4.706,10.355,10.355,0,0,1-1.163,1.22l-.038.024a41.464,41.464,0,0,1-1.113-4.148l-.185-.8c-.09-.389-.173-.78-.263-1.169-.1-.445-.259-.869-.4-1.3a4.073,4.073,0,0,0-.511-1.1,1.637,1.637,0,0,0-.38-.44,2.107,2.107,0,0,0-.862-.48c-.2-.039-.409-.069-.614-.091a3.846,3.846,0,0,0-.79.1,2.218,2.218,0,0,0-.854.488,2.648,2.648,0,0,0-.407.419c-.273.338-.542.69-.789,1.045-.2.282-.367.585-.551.875-.173.274-.35.547-.526.82-.3.475-.608.95-.906,1.43q-.619,1-1.24,2c-.36.581-.715,1.165-1.079,1.744-.424.677-.892,1.323-1.375,1.959a10.885,10.885,0,0,1-1.564,1.6,6.167,6.167,0,0,1-.595.37c-.077.025-.155.048-.234.069l-.048,0-.007-.008a7.6,7.6,0,0,1-.642-1.2,17.637,17.637,0,0,1-.964-3.506c-.128-.737-.27-1.474-.377-2.215-.075-.573-.16-1.144-.25-1.715-.023-.2-.046-.4-.077-.6a2.666,2.666,0,0,0-.226-.724,1.834,1.834,0,0,0-1.181-1.013,2.077,2.077,0,0,0-.955-.015l-.127.026a1.522,1.522,0,0,0-.671.39,2.908,2.908,0,0,0-.708,1.04c-.36.681-.776,1.338-1.168,2a66.126,66.126,0,0,1-3.826,5.985,13.2,13.2,0,0,1-1.847,1.924,6.3,6.3,0,0,1-.743.443c-.113-.3-.219-.6-.3-.909q-.151-.547-.3-1.1c-.159-.576-.279-1.165-.417-1.747s-.253-1.176-.378-1.763c-.1-.469-.2-.939-.293-1.408-.084-.413-.195-.817-.3-1.224-.082-.306-.134-.617-.224-.92a2.288,2.288,0,0,0-1.449-1.611,2.119,2.119,0,0,0-2.222.539,2.82,2.82,0,0,0-.472.744c-.146.313-.3.616-.461.923-.228.438-.435.886-.66,1.323a42.768,42.768,0,0,1-3.314,5.754,8.6,8.6,0,0,1-1.079,1.1,4.9,4.9,0,0,1-.5.313c-.081.026-.161.05-.243.072l-.009-.009a5.709,5.709,0,0,1-.442-.842,26.04,26.04,0,0,1-.879-2.819c-.155-.588-.333-1.176-.466-1.77q-.23-1.017-.458-2.034c-.068-.3-.135-.606-.19-.913a6.112,6.112,0,0,0-.314-1.213,2.1,2.1,0,0,0-.241-.5,6.3,6.3,0,0,0-.472-.612,1.263,1.263,0,0,0-.937-.387,1.37,1.37,0,0,0-1.143.655,7.865,7.865,0,0,0-.578.9c-.212.4-.372.839-.542,1.263-.316.734-.642,1.464-.963,2.2-.445,1.015-.88,2.034-1.389,3.019a20.624,20.624,0,0,1-1.641,2.833,8.135,8.135,0,0,1-.969,1.053,4.664,4.664,0,0,1-.447.259l-.075.025-.031-.034c-.052-.079-.1-.16-.146-.247a31.932,31.932,0,0,1-1.223-4.254q-.234-.985-.465-1.971c-.1-.416-.2-.831-.312-1.242a5.377,5.377,0,0,0-.365-.891,3.9,3.9,0,0,0-.708-.847,1.16,1.16,0,0,0-.83-.344,1.224,1.224,0,0,0-1.013.581,7.012,7.012,0,0,0-.566.859,12.6,12.6,0,0,0-.5,1.189q-.661,1.49-1.353,2.966c-.334.716-.671,1.429-1.017,2.139s-.717,1.428-1.123,2.116c-.356.607-.71,1.212-1.121,1.783a7.717,7.717,0,0,1-.936.971q-.072.048-.147.091c-.053.017-.1.032-.158.045-.057-.1-.109-.2-.159-.3a12.575,12.575,0,0,1-.4-1.983q-.124-.746-.25-1.493c-.153-1.17-.318-2.343-.4-3.52q-.089-1.349-.18-2.7c-.031-.477-.043-.956-.06-1.434a7.954,7.954,0,0,0-.147-1.212,3.882,3.882,0,0,0-.568-1.216,1.062,1.062,0,0,0-.629-.483,1.08,1.08,0,0,0-1.023.271,4.923,4.923,0,0,0-.787.794,8.573,8.573,0,0,0-.675,1.176c-.163.319-.341.632-.512.948q-.443.818-.889,1.636a53.213,53.213,0,0,1-3.994,6.547c-.289.361-.59.708-.9,1.052-.146.163-.291.323-.441.478-.153-.55-.273-1.108-.394-1.672-.139-.65-.255-1.308-.361-1.963q-.406-2.509-.78-5.021c-.1-.671-.214-1.34-.349-2-.089-.432-.185-.862-.272-1.3a1.784,1.784,0,0,0-.744-1.186,1.372,1.372,0,0,0-1.113-.1,1.357,1.357,0,0,0-.828.889c-.079.234-.129.475-.211.708q-.136.386-.273.769c-.535,1.513-1.116,3.008-1.7,4.505-.133.34-.275.676-.417,1.013a23.469,23.469,0,0,1-2.611,4.773,10.814,10.814,0,0,1-1.284,1.461,2.881,2.881,0,0,1-.268.156c-.024.008-.05.014-.074.019-.043,0-.085,0-.128,0-.01-.019-.021-.039-.03-.059a5.226,5.226,0,0,1-.161-.574c-.046-.622-.013-1.254-.006-1.877.006-.444.006-.889.016-1.333q.034-1.481.054-2.965c.012-.9.036-1.809.05-2.713.006-.406.012-.813.018-1.22.009-.661.032-1.319.023-1.979a17.046,17.046,0,0,0-.221-2.075.8.8,0,0,0-.568-.567.829.829,0,0,0-.918.373c-.143.211-.29.42-.43.634a5.336,5.336,0,0,0-.4.883,16.517,16.517,0,0,0-.627,1.976c-.177.651-.349,1.3-.541,1.95q-.471,1.581-.93,3.165-1.233,4.249-2.391,8.519a0,0,0,1,0,.006,0q1.567-3.789,3.08-7.6.641-1.617,1.27-3.238c.088-.228.176-.454.264-.683.237-.614.445-1.237.663-1.858-.025.457-.044.914-.064,1.372q-.065,1.459-.118,2.919c-.056,1.524-.094,3.048-.127,4.572-.013.547-.042,1.1-.042,1.643a4.538,4.538,0,0,0,.23,1.287,2.006,2.006,0,0,0,.812,1.176,2.48,2.48,0,0,0,2.354.036,7.232,7.232,0,0,0,2.039-2.01,22.86,22.86,0,0,0,3.063-5.718c.38-.945.719-1.907,1.066-2.864.236-.65.456-1.305.68-1.958l.005-.014c.082.466.145.937.216,1.406l-.005-.038q.348,2.607.7,5.215c.153,1.17.3,2.347.519,3.508.085.466.187.92.312,1.379a1.629,1.629,0,0,0,.691.987,1.714,1.714,0,0,0,1.255.14,4.051,4.051,0,0,0,1.886-1.258,22.127,22.127,0,0,0,1.746-2.142,46.352,46.352,0,0,0,3.564-6.191q.349-.678.687-1.359l.557-1.114.071-.145c.011.265.021.531.04.8q.051.768.1,1.533c.048.706.079,1.413.161,2.115q.163,1.395.328,2.79c.1.85.246,1.694.37,2.541a6.532,6.532,0,0,0,.329,1.576,2.893,2.893,0,0,0,.8,1.269,2.275,2.275,0,0,0,1.475.47,2.711,2.711,0,0,0,1.523-.522,8.36,8.36,0,0,0,2.27-2.631,34.6,34.6,0,0,0,1.727-3.208c.493-1.024.957-2.061,1.426-3.095q.386-.846.754-1.7.109.505.219,1.011.18.837.359,1.675c.182.864.359,1.73.576,2.587a7.64,7.64,0,0,0,.764,2.227,2.593,2.593,0,0,0,2.094,1.378,4.263,4.263,0,0,0,2.161-.644,6.863,6.863,0,0,0,1.756-1.722,13.81,13.81,0,0,0,1.372-2.173c.387-.741.751-1.494,1.084-2.26.443-1.02.856-2.053,1.269-3.085l.1-.247.016.074c.125.549.241,1.1.379,1.646.184.731.365,1.462.55,2.192.2.791.413,1.578.692,2.346a12.744,12.744,0,0,0,.517,1.223,3.407,3.407,0,0,0,.475.654,2.482,2.482,0,0,0,.593.527,2.57,2.57,0,0,0,.517.242,4.959,4.959,0,0,0,.827.123,3.891,3.891,0,0,0,.626-.065,3.2,3.2,0,0,0,.669-.176,6.462,6.462,0,0,0,2.184-1.519,10.1,10.1,0,0,0,.862-1.047c.252-.326.477-.674.7-1.018a27.137,27.137,0,0,0,1.368-2.379c.383-.739.748-1.487,1.116-2.233.155-.315.31-.63.46-.946l.131-.275c.06.244.117.488.166.735q.147.751.294,1.5.239,1.225.482,2.448c.148.747.3,1.494.464,2.237a10.707,10.707,0,0,0,.364,1.316,2.385,2.385,0,0,0,.511.873,5.6,5.6,0,0,0,.657.541,2.442,2.442,0,0,0,.784.327,2.213,2.213,0,0,0,.834.048,4.236,4.236,0,0,0,.851-.168,7.246,7.246,0,0,0,.985-.424,6.827,6.827,0,0,0,1.267-.9,10.9,10.9,0,0,0,1-.963,20.807,20.807,0,0,0,1.916-2.5c.826-1.186,1.518-2.466,2.227-3.725q.339-.6.675-1.208.1.655.207,1.311a26.158,26.158,0,0,0,.776,3.536,14.463,14.463,0,0,0,.9,2.271,6.428,6.428,0,0,0,.743,1.046,2.549,2.549,0,0,0,1.458.8,3.947,3.947,0,0,0,1.573-.008,4.942,4.942,0,0,0,1.262-.483,7.466,7.466,0,0,0,1.146-.821,8.389,8.389,0,0,0,1.038-.984,23.232,23.232,0,0,0,1.574-2.055c.54-.751,1-1.553,1.47-2.348.424-.722.853-1.44,1.279-2.161.283-.479.565-.959.856-1.434l.724-1.18c.129-.209.256-.421.385-.63.136.558.246,1.122.358,1.687.12.608.238,1.217.361,1.825.133.663.27,1.326.4,1.991.08.412.18.821.268,1.232q.036.2.086.4a3.779,3.779,0,0,0,.333.8,5.766,5.766,0,0,0,.4.531,3.3,3.3,0,0,0,.647.58,2.565,2.565,0,0,0,1.475.478,4.622,4.622,0,0,0,2.442-.723,7.307,7.307,0,0,0,1.125-.917,9.92,9.92,0,0,0,.819-.9,24.933,24.933,0,0,0,2.692-4.3q.2-.381.394-.764c.044.786.089,1.571.141,2.356.052.805.1,1.611.179,2.414.056.555.146,1.106.245,1.656l.048.193q.132.316.266.63a3.746,3.746,0,0,0,.506.693,3.2,3.2,0,0,0,.661.509,2.525,2.525,0,0,0,1.172.3,6.522,6.522,0,0,0,.956-.121,3.456,3.456,0,0,0,1.054-.458,8.316,8.316,0,0,0,2.176-2.279,23.154,23.154,0,0,0,1.769-2.839c.454-.815.861-1.658,1.287-2.489q.166-.325.331-.651-.011.528-.026,1.057-.031,1.124-.084,2.246c-.018.375-.035.751-.054,1.125-.008.155-.019.31-.028.465a4.61,4.61,0,0,0,.1.976,3.554,3.554,0,0,0,.314.829,2.318,2.318,0,0,0,.5.722l.109.092a2.131,2.131,0,0,0,.94.548,4.223,4.223,0,0,0,.9.151,3.849,3.849,0,0,0,.962-.109,2.87,2.87,0,0,0,.568-.16,7.145,7.145,0,0,0,2.8-2.029,17.738,17.738,0,0,0,1.876-2.65c.329-.528.625-1.075.912-1.627,0,.7-.007,1.394-.026,2.09-.013.456-.013.91-.023,1.365a5.242,5.242,0,0,0,.126,1.013c.019.067.041.135.062.2q.149.367.305.73a4.28,4.28,0,0,0,.59.778,2.925,2.925,0,0,0,1.135.664,3.708,3.708,0,0,0,2.1.146,5.218,5.218,0,0,0,1.59-.657,8.84,8.84,0,0,0,2.355-2.118c.376-.461.737-.938,1.093-1.413.632-.842,1.156-1.763,1.711-2.655.189-.3.368-.61.551-.915q.584-.972,1.16-1.948c.333-.563.653-1.14.989-1.706.1.357.206.711.292,1.073.14.6.258,1.2.389,1.8.161.741.331,1.48.492,2.222.074.341.189.68.283,1.016.1.372.206.744.325,1.11a6.82,6.82,0,0,0,2.571,3.87,0,0,0,0,0,0,0c-.084-.094-.165-.191-.243-.289a6.761,6.761,0,0,1-.658-1.177,11.081,11.081,0,0,1-.61-2.607c-.173-1.4-.2-2.8-.242-4.209-.013-.41-.027-.818-.035-1.228-.018-.894-.1-1.775-.191-2.664a5.394,5.394,0,0,0-.207-1.114,3.068,3.068,0,0,0-.307-.646,2.277,2.277,0,0,0-.636-.645A2.125,2.125,0,0,0,540.9,152.7ZM409.86,170.965h0Zm.069-.009-.022,0h0l.021,0-.026-.005h0l.031,0h0l.068.009h0C409.975,170.963,409.952,170.959,409.929,170.955Zm.073.01h0l.037.005Zm23.727.387h0l.025,0Zm24.109-4.034c-.022-.017-.044-.035-.065-.055l.07.054Zm12.741.114h0Zm.014.007v0l.148.063A1.462,1.462,0,0,1,470.593,167.439Zm13.721-.989h0l.092.013C484.375,166.459,484.344,166.455,484.314,166.45Zm56.2-10.94c.021.008.041.016.061.025h0Z" transform="translate(974.448 34.38)" fill="#161616"/>
    </g>
  </g>
</svg>
