<svg xmlns="http://www.w3.org/2000/svg" width="76.105" height="59.324" viewBox="0 0 76.105 59.324">
  <g id="Group_1059862" data-name="Group 1059862" transform="matrix(0.602, -0.799, 0.799, 0.602, -2802.556, -859.986)">
    <path id="Subtraction_1" data-name="Subtraction 1" d="M47.1,19.453H0A23.773,23.773,0,0,1,2.928,11.74a23.987,23.987,0,0,1,41.246,0A23.773,23.773,0,0,1,47.1,19.453Z" transform="translate(969.763 2778.412)" fill="#ff7a5a"/>
    <path id="Subtraction_2" data-name="Subtraction 2" d="M25.367,26.849A23.82,23.82,0,0,1,8.413,19.826,23.82,23.82,0,0,1,1.39,2.872,24.311,24.311,0,0,1,1.561,0H49.175a24.307,24.307,0,0,1,.17,2.872,23.82,23.82,0,0,1-7.023,16.954A23.821,23.821,0,0,1,25.367,26.849Z" transform="translate(979.469 2802.358)" fill="#2188c4"/>
  </g>
</svg>
